G04*
G04 #@! TF.GenerationSoftware,Altium Limited,Altium Designer,24.0.1 (36)*
G04*
G04 Layer_Color=2752767*
%FSLAX44Y44*%
%MOMM*%
G71*
G04*
G04 #@! TF.SameCoordinates,AE154294-96CE-490B-A9AE-858F9377290F*
G04*
G04*
G04 #@! TF.FilePolarity,Positive*
G04*
G01*
G75*
%ADD14C,0.1270*%
%ADD65C,0.1693*%
D14*
X1045770Y757700D02*
X1048310D01*
X1050850Y760240D01*
X1053390Y757700D01*
X1055930D01*
Y760240D01*
X1053390Y762780D01*
X1055930Y765320D01*
Y767860D01*
X1053390D01*
X1050850Y765320D01*
X1048310Y767860D01*
X1045770D01*
Y765320D01*
X1048310Y762780D01*
X1045770Y760240D01*
Y757700D01*
X1009850Y737700D02*
X1012390Y740240D01*
X1014930D01*
X1012390Y742780D01*
X1014930Y745320D01*
X1012390D01*
X1009850Y747860D01*
X1007310Y745320D01*
X1004770D01*
X1007310Y742780D01*
X1004770Y740240D01*
X1007310D01*
X1009850Y737700D01*
X1034850D02*
X1037390Y740240D01*
X1039930D01*
X1037390Y742780D01*
X1039930Y745320D01*
X1037390D01*
X1034850Y747860D01*
X1032310Y745320D01*
X1029770D01*
X1032310Y742780D01*
X1029770Y740240D01*
X1032310D01*
X1034850Y737700D01*
X1443990Y447040D02*
X1446530Y449580D01*
X1449070D01*
X1446530Y452120D01*
X1449070Y454660D01*
X1446530D01*
X1443990Y457200D01*
X1441450Y454660D01*
X1438910D01*
X1441450Y452120D01*
X1438910Y449580D01*
X1441450D01*
X1443990Y447040D01*
X1418990D02*
X1421530Y449580D01*
X1424070D01*
X1421530Y452120D01*
X1424070Y454660D01*
X1421530D01*
X1418990Y457200D01*
X1416450Y454660D01*
X1413910D01*
X1416450Y452120D01*
X1413910Y449580D01*
X1416450D01*
X1418990Y447040D01*
X1318990D02*
X1321530Y449580D01*
X1324070D01*
X1321530Y452120D01*
X1324070Y454660D01*
X1321530D01*
X1318990Y457200D01*
X1316450Y454660D01*
X1313910D01*
X1316450Y452120D01*
X1313910Y449580D01*
X1316450D01*
X1318990Y447040D01*
X1343990D02*
X1346530Y449580D01*
X1349070D01*
X1346530Y452120D01*
X1349070Y454660D01*
X1346530D01*
X1343990Y457200D01*
X1341450Y454660D01*
X1338910D01*
X1341450Y452120D01*
X1338910Y449580D01*
X1341450D01*
X1343990Y447040D01*
X1393990D02*
X1396530Y449580D01*
X1399070D01*
X1396530Y452120D01*
X1399070Y454660D01*
X1396530D01*
X1393990Y457200D01*
X1391450Y454660D01*
X1388910D01*
X1391450Y452120D01*
X1388910Y449580D01*
X1391450D01*
X1393990Y447040D01*
X1368990D02*
X1371530Y449580D01*
X1374070D01*
X1371530Y452120D01*
X1374070Y454660D01*
X1371530D01*
X1368990Y457200D01*
X1366450Y454660D01*
X1363910D01*
X1366450Y452120D01*
X1363910Y449580D01*
X1366450D01*
X1368990Y447040D01*
X1460430Y725170D02*
X1462970Y727710D01*
X1465510D01*
X1462970Y730250D01*
X1465510Y732790D01*
X1462970D01*
X1460430Y735330D01*
X1457890Y732790D01*
X1455350D01*
X1457890Y730250D01*
X1455350Y727710D01*
X1457890D01*
X1460430Y725170D01*
X1485430D02*
X1487970Y727710D01*
X1490510D01*
X1487970Y730250D01*
X1490510Y732790D01*
X1487970D01*
X1485430Y735330D01*
X1482890Y732790D01*
X1480350D01*
X1482890Y730250D01*
X1480350Y727710D01*
X1482890D01*
X1485430Y725170D01*
X1435430D02*
X1437970Y727710D01*
X1440510D01*
X1437970Y730250D01*
X1440510Y732790D01*
X1437970D01*
X1435430Y735330D01*
X1432890Y732790D01*
X1430350D01*
X1432890Y730250D01*
X1430350Y727710D01*
X1432890D01*
X1435430Y725170D01*
X1410430D02*
X1412970Y727710D01*
X1415510D01*
X1412970Y730250D01*
X1415510Y732790D01*
X1412970D01*
X1410430Y735330D01*
X1407890Y732790D01*
X1405350D01*
X1407890Y730250D01*
X1405350Y727710D01*
X1407890D01*
X1410430Y725170D01*
X1510430D02*
X1512970Y727710D01*
X1515510D01*
X1512970Y730250D01*
X1515510Y732790D01*
X1512970D01*
X1510430Y735330D01*
X1507890Y732790D01*
X1505350D01*
X1507890Y730250D01*
X1505350Y727710D01*
X1507890D01*
X1510430Y725170D01*
X1535430D02*
X1537970Y727710D01*
X1540510D01*
X1537970Y730250D01*
X1540510Y732790D01*
X1537970D01*
X1535430Y735330D01*
X1532890Y732790D01*
X1530350D01*
X1532890Y730250D01*
X1530350Y727710D01*
X1532890D01*
X1535430Y725170D01*
X1560430D02*
X1562970Y727710D01*
X1565510D01*
X1562970Y730250D01*
X1565510Y732790D01*
X1562970D01*
X1560430Y735330D01*
X1557890Y732790D01*
X1555350D01*
X1557890Y730250D01*
X1555350Y727710D01*
X1557890D01*
X1560430Y725170D01*
X1585430D02*
X1587970Y727710D01*
X1590510D01*
X1587970Y730250D01*
X1590510Y732790D01*
X1587970D01*
X1585430Y735330D01*
X1582890Y732790D01*
X1580350D01*
X1582890Y730250D01*
X1580350Y727710D01*
X1582890D01*
X1585430Y725170D01*
X1559040Y419460D02*
X1553960Y429620D01*
X1564120D01*
X1559040Y419460D01*
X1494040D02*
X1488960Y429620D01*
X1499120D01*
X1494040Y419460D01*
X1559040Y464460D02*
X1553960Y474620D01*
X1564120D01*
X1559040Y464460D01*
X1494040D02*
X1488960Y474620D01*
X1499120D01*
X1494040Y464460D01*
X1315188Y797560D02*
X1317728Y800100D01*
X1320267D01*
X1317728Y802640D01*
X1320267Y805180D01*
X1317728D01*
X1315188Y807720D01*
X1312648Y805180D01*
X1310108D01*
X1312648Y802640D01*
X1310108Y800100D01*
X1312648D01*
X1315188Y797560D01*
X1290188D02*
X1292728Y800100D01*
X1295267D01*
X1292728Y802640D01*
X1295267Y805180D01*
X1292728D01*
X1290188Y807720D01*
X1287648Y805180D01*
X1285108D01*
X1287648Y802640D01*
X1285108Y800100D01*
X1287648D01*
X1290188Y797560D01*
X1265188D02*
X1267728Y800100D01*
X1270267D01*
X1267728Y802640D01*
X1270267Y805180D01*
X1267728D01*
X1265188Y807720D01*
X1262647Y805180D01*
X1260107D01*
X1262647Y802640D01*
X1260107Y800100D01*
X1262647D01*
X1265188Y797560D01*
X1240188D02*
X1242728Y800100D01*
X1245267D01*
X1242728Y802640D01*
X1245267Y805180D01*
X1242728D01*
X1240188Y807720D01*
X1237647Y805180D01*
X1235107D01*
X1237647Y802640D01*
X1235107Y800100D01*
X1237647D01*
X1240188Y797560D01*
X1432960Y795020D02*
X1435500Y797560D01*
X1438040D01*
X1435500Y800100D01*
X1438040Y802640D01*
X1435500D01*
X1432960Y805180D01*
X1430420Y802640D01*
X1427880D01*
X1430420Y800100D01*
X1427880Y797560D01*
X1430420D01*
X1432960Y795020D01*
X1457960D02*
X1460500Y797560D01*
X1463040D01*
X1460500Y800100D01*
X1463040Y802640D01*
X1460500D01*
X1457960Y805180D01*
X1455420Y802640D01*
X1452880D01*
X1455420Y800100D01*
X1452880Y797560D01*
X1455420D01*
X1457960Y795020D01*
X1407960D02*
X1410500Y797560D01*
X1413040D01*
X1410500Y800100D01*
X1413040Y802640D01*
X1410500D01*
X1407960Y805180D01*
X1405420Y802640D01*
X1402880D01*
X1405420Y800100D01*
X1402880Y797560D01*
X1405420D01*
X1407960Y795020D01*
X1382960D02*
X1385500Y797560D01*
X1388040D01*
X1385500Y800100D01*
X1388040Y802640D01*
X1385500D01*
X1382960Y805180D01*
X1380420Y802640D01*
X1377880D01*
X1380420Y800100D01*
X1377880Y797560D01*
X1380420D01*
X1382960Y795020D01*
X1482960D02*
X1485500Y797560D01*
X1488040D01*
X1485500Y800100D01*
X1488040Y802640D01*
X1485500D01*
X1482960Y805180D01*
X1480420Y802640D01*
X1477880D01*
X1480420Y800100D01*
X1477880Y797560D01*
X1480420D01*
X1482960Y795020D01*
X1507960D02*
X1510500Y797560D01*
X1513040D01*
X1510500Y800100D01*
X1513040Y802640D01*
X1510500D01*
X1507960Y805180D01*
X1505420Y802640D01*
X1502880D01*
X1505420Y800100D01*
X1502880Y797560D01*
X1505420D01*
X1507960Y795020D01*
X1532960D02*
X1535500Y797560D01*
X1538040D01*
X1535500Y800100D01*
X1538040Y802640D01*
X1535500D01*
X1532960Y805180D01*
X1530420Y802640D01*
X1527880D01*
X1530420Y800100D01*
X1527880Y797560D01*
X1530420D01*
X1532960Y795020D01*
X1557960D02*
X1560500Y797560D01*
X1563040D01*
X1560500Y800100D01*
X1563040Y802640D01*
X1560500D01*
X1557960Y805180D01*
X1555420Y802640D01*
X1552880D01*
X1555420Y800100D01*
X1552880Y797560D01*
X1555420D01*
X1557960Y795020D01*
X1176090Y797560D02*
X1178630Y800100D01*
X1181170D01*
X1178630Y802640D01*
X1181170Y805180D01*
X1178630D01*
X1176090Y807720D01*
X1173550Y805180D01*
X1171010D01*
X1173550Y802640D01*
X1171010Y800100D01*
X1173550D01*
X1176090Y797560D01*
X1151090D02*
X1153630Y800100D01*
X1156170D01*
X1153630Y802640D01*
X1156170Y805180D01*
X1153630D01*
X1151090Y807720D01*
X1148550Y805180D01*
X1146010D01*
X1148550Y802640D01*
X1146010Y800100D01*
X1148550D01*
X1151090Y797560D01*
X1126090D02*
X1128630Y800100D01*
X1131170D01*
X1128630Y802640D01*
X1131170Y805180D01*
X1128630D01*
X1126090Y807720D01*
X1123550Y805180D01*
X1121010D01*
X1123550Y802640D01*
X1121010Y800100D01*
X1123550D01*
X1126090Y797560D01*
X1101090D02*
X1103630Y800100D01*
X1106170D01*
X1103630Y802640D01*
X1106170Y805180D01*
X1103630D01*
X1101090Y807720D01*
X1098550Y805180D01*
X1096010D01*
X1098550Y802640D01*
X1096010Y800100D01*
X1098550D01*
X1101090Y797560D01*
X1110770Y600450D02*
Y610610D01*
X1120930D01*
Y600450D01*
X1110770D01*
X1052770D02*
Y610610D01*
X1062930D01*
Y600450D01*
X1052770D01*
X1080770Y552450D02*
Y562610D01*
X1090930D01*
Y552450D01*
X1080770D01*
X1428750Y670560D02*
X1431290Y675640D01*
X1428750Y680720D01*
X1433830Y678180D01*
X1438910Y680720D01*
X1436370Y675640D01*
X1438910Y670560D01*
X1433830Y673100D01*
X1428750Y670560D01*
X1074420Y765810D02*
X1076960Y770890D01*
X1074420Y775970D01*
X1079500Y773430D01*
X1084580Y775970D01*
X1082040Y770890D01*
X1084580Y765810D01*
X1079500Y768350D01*
X1074420Y765810D01*
X1278307Y775283D02*
X1280847Y780363D01*
X1278307Y785443D01*
X1283387Y782903D01*
X1288467Y785443D01*
X1285927Y780363D01*
X1288467Y775283D01*
X1283387Y777823D01*
X1278307Y775283D01*
X1122680Y772160D02*
X1125220Y777240D01*
X1122680Y782320D01*
X1127760Y779780D01*
X1132840Y782320D01*
X1130300Y777240D01*
X1132840Y772160D01*
X1127760Y774700D01*
X1122680Y772160D01*
X1341120Y788670D02*
X1343660Y793750D01*
X1341120Y798830D01*
X1346200Y796290D01*
X1351280Y798830D01*
X1348740Y793750D01*
X1351280Y788670D01*
X1346200Y791210D01*
X1341120Y788670D01*
X1079500Y773430D02*
X1082040Y778510D01*
X1079500Y783590D01*
X1084580Y781050D01*
X1089660Y783590D01*
X1087120Y778510D01*
X1089660Y773430D01*
X1084580Y775970D01*
X1079500Y773430D01*
X1341120Y779780D02*
X1343660Y784860D01*
X1341120Y789940D01*
X1346200Y787400D01*
X1351280Y789940D01*
X1348740Y784860D01*
X1351280Y779780D01*
X1346200Y782320D01*
X1341120Y779780D01*
X1285240Y765810D02*
X1287780Y770890D01*
X1285240Y775970D01*
X1290320Y773430D01*
X1295400Y775970D01*
X1292860Y770890D01*
X1295400Y765810D01*
X1290320Y768350D01*
X1285240Y765810D01*
X1170940Y769668D02*
X1173480Y774748D01*
X1170940Y779828D01*
X1176020Y777288D01*
X1181100Y779828D01*
X1178560Y774748D01*
X1181100Y769668D01*
X1176020Y772208D01*
X1170940Y769668D01*
X1404620Y684530D02*
X1407160Y689610D01*
X1404620Y694690D01*
X1409700Y692150D01*
X1414780Y694690D01*
X1412240Y689610D01*
X1414780Y684530D01*
X1409700Y687070D01*
X1404620Y684530D01*
X1151890Y730250D02*
X1154430Y735330D01*
X1151890Y740410D01*
X1156970Y737870D01*
X1162050Y740410D01*
X1159510Y735330D01*
X1162050Y730250D01*
X1156970Y732790D01*
X1151890Y730250D01*
X1162050D02*
X1164590Y735330D01*
X1162050Y740410D01*
X1167130Y737870D01*
X1172210Y740410D01*
X1169670Y735330D01*
X1172210Y730250D01*
X1167130Y732790D01*
X1162050Y730250D01*
X1177290Y725170D02*
X1179830Y730250D01*
X1177290Y735330D01*
X1182370Y732790D01*
X1187450Y735330D01*
X1184910Y730250D01*
X1187450Y725170D01*
X1182370Y727710D01*
X1177290Y725170D01*
X1601470Y433070D02*
Y430530D01*
X1606550D01*
Y433070D01*
X1609090D01*
Y438150D01*
X1606550D01*
Y440690D01*
X1601470D01*
Y438150D01*
X1598930D01*
Y433070D01*
X1601470D01*
X993140D02*
Y430530D01*
X998220D01*
Y433070D01*
X1000760D01*
Y438150D01*
X998220D01*
Y440690D01*
X993140D01*
Y438150D01*
X990600D01*
Y433070D01*
X993140D01*
X994410Y806450D02*
Y803910D01*
X999490D01*
Y806450D01*
X1002030D01*
Y811530D01*
X999490D01*
Y814070D01*
X994410D01*
Y811530D01*
X991870D01*
Y806450D01*
X994410D01*
X1214120Y421640D02*
X1216660Y426720D01*
X1214120Y431800D01*
X1219200Y429260D01*
X1224280Y431800D01*
X1221740Y426720D01*
X1224280Y421640D01*
X1219200Y424180D01*
X1214120Y421640D01*
X1234440Y435610D02*
X1236980Y440690D01*
X1234440Y445770D01*
X1239520Y443230D01*
X1244600Y445770D01*
X1242060Y440690D01*
X1244600Y435610D01*
X1239520Y438150D01*
X1234440Y435610D01*
X1431083Y759253D02*
X1433623Y764333D01*
X1431083Y769413D01*
X1436163Y766873D01*
X1441243Y769413D01*
X1438703Y764333D01*
X1441243Y759253D01*
X1436163Y761793D01*
X1431083Y759253D01*
X1611220Y806450D02*
Y803910D01*
X1616300D01*
Y806450D01*
X1618840D01*
Y811530D01*
X1616300D01*
Y814070D01*
X1611220D01*
Y811530D01*
X1608680D01*
Y806450D01*
X1611220D01*
X1456690Y685800D02*
X1459230Y690880D01*
X1456690Y695960D01*
X1461770Y693420D01*
X1466850Y695960D01*
X1464310Y690880D01*
X1466850Y685800D01*
X1461770Y688340D01*
X1456690Y685800D01*
X1511300Y674370D02*
X1513840Y679450D01*
X1511300Y684530D01*
X1516380Y681990D01*
X1521460Y684530D01*
X1518920Y679450D01*
X1521460Y674370D01*
X1516380Y676910D01*
X1511300Y674370D01*
X1389380Y675640D02*
X1391920Y680720D01*
X1389380Y685800D01*
X1394460Y683260D01*
X1399540Y685800D01*
X1397000Y680720D01*
X1399540Y675640D01*
X1394460Y678180D01*
X1389380Y675640D01*
X1550670Y685800D02*
X1553210Y690880D01*
X1550670Y695960D01*
X1555750Y693420D01*
X1560830Y695960D01*
X1558290Y690880D01*
X1560830Y685800D01*
X1555750Y688340D01*
X1550670Y685800D01*
X1381760Y679450D02*
X1384300Y684530D01*
X1381760Y689610D01*
X1386840Y687070D01*
X1391920Y689610D01*
X1389380Y684530D01*
X1391920Y679450D01*
X1386840Y681990D01*
X1381760Y679450D01*
X1319530Y646414D02*
X1322070Y651494D01*
X1319530Y656574D01*
X1324610Y654034D01*
X1329690Y656574D01*
X1327150Y651494D01*
X1329690Y646414D01*
X1324610Y648954D01*
X1319530Y646414D01*
X1313714Y640798D02*
X1316254Y645878D01*
X1313714Y650958D01*
X1318794Y648418D01*
X1323874Y650958D01*
X1321334Y645878D01*
X1323874Y640798D01*
X1318794Y643338D01*
X1313714Y640798D01*
X1315720Y632460D02*
X1318260Y637540D01*
X1315720Y642620D01*
X1320800Y640080D01*
X1325880Y642620D01*
X1323340Y637540D01*
X1325880Y632460D01*
X1320800Y635000D01*
X1315720Y632460D01*
X1469390Y756920D02*
X1471930Y762000D01*
X1469390Y767080D01*
X1474470Y764540D01*
X1479550Y767080D01*
X1477010Y762000D01*
X1479550Y756920D01*
X1474470Y759460D01*
X1469390Y756920D01*
X1522730Y753110D02*
X1525270Y758190D01*
X1522730Y763270D01*
X1527810Y760730D01*
X1532890Y763270D01*
X1530350Y758190D01*
X1532890Y753110D01*
X1527810Y755650D01*
X1522730Y753110D01*
X1319530Y624840D02*
X1322070Y629920D01*
X1319530Y635000D01*
X1324610Y632460D01*
X1329690Y635000D01*
X1327150Y629920D01*
X1329690Y624840D01*
X1324610Y627380D01*
X1319530Y624840D01*
X1318260Y617220D02*
X1320800Y622300D01*
X1318260Y627380D01*
X1323340Y624840D01*
X1328420Y627380D01*
X1325880Y622300D01*
X1328420Y617220D01*
X1323340Y619760D01*
X1318260Y617220D01*
X1511804Y555756D02*
X1514344Y560836D01*
X1511804Y565916D01*
X1516884Y563376D01*
X1521964Y565916D01*
X1519424Y560836D01*
X1521964Y555756D01*
X1516884Y558296D01*
X1511804Y555756D01*
X1517650Y546148D02*
X1520190Y551228D01*
X1517650Y556308D01*
X1522730Y553768D01*
X1527810Y556308D01*
X1525270Y551228D01*
X1527810Y546148D01*
X1522730Y548688D01*
X1517650Y546148D01*
X1551940Y551180D02*
X1554480Y556260D01*
X1551940Y561340D01*
X1557020Y558800D01*
X1562100Y561340D01*
X1559560Y556260D01*
X1562100Y551180D01*
X1557020Y553720D01*
X1551940Y551180D01*
X1517650Y656590D02*
X1520190Y661670D01*
X1517650Y666750D01*
X1522730Y664210D01*
X1527810Y666750D01*
X1525270Y661670D01*
X1527810Y656590D01*
X1522730Y659130D01*
X1517650Y656590D01*
X1544320Y627380D02*
X1546860Y632460D01*
X1544320Y637540D01*
X1549400Y635000D01*
X1554480Y637540D01*
X1551940Y632460D01*
X1554480Y627380D01*
X1549400Y629920D01*
X1544320Y627380D01*
X1548130Y567690D02*
X1550670Y572770D01*
X1548130Y577850D01*
X1553210Y575310D01*
X1558290Y577850D01*
X1555750Y572770D01*
X1558290Y567690D01*
X1553210Y570230D01*
X1548130Y567690D01*
X1569720Y490220D02*
X1572260Y495300D01*
X1569720Y500380D01*
X1574800Y497840D01*
X1579880Y500380D01*
X1577340Y495300D01*
X1579880Y490220D01*
X1574800Y492760D01*
X1569720Y490220D01*
X1474470Y429260D02*
X1477010Y434340D01*
X1474470Y439420D01*
X1479550Y436880D01*
X1484630Y439420D01*
X1482090Y434340D01*
X1484630Y429260D01*
X1479550Y431800D01*
X1474470Y429260D01*
Y469900D02*
X1477010Y474980D01*
X1474470Y480060D01*
X1479550Y477520D01*
X1484630Y480060D01*
X1482090Y474980D01*
X1484630Y469900D01*
X1479550Y472440D01*
X1474470Y469900D01*
X1318260Y510540D02*
X1320800Y515620D01*
X1318260Y520700D01*
X1323340Y518160D01*
X1328420Y520700D01*
X1325880Y515620D01*
X1328420Y510540D01*
X1323340Y513080D01*
X1318260Y510540D01*
Y518160D02*
X1320800Y523240D01*
X1318260Y528320D01*
X1323340Y525780D01*
X1328420Y528320D01*
X1325880Y523240D01*
X1328420Y518160D01*
X1323340Y520700D01*
X1318260Y518160D01*
X1322657Y580390D02*
X1325197Y585470D01*
X1322657Y590550D01*
X1327737Y588010D01*
X1332817Y590550D01*
X1330277Y585470D01*
X1332817Y580390D01*
X1327737Y582930D01*
X1322657Y580390D01*
X1318260Y532130D02*
X1320800Y537210D01*
X1318260Y542290D01*
X1323340Y539750D01*
X1328420Y542290D01*
X1325880Y537210D01*
X1328420Y532130D01*
X1323340Y534670D01*
X1318260Y532130D01*
X1300480Y692150D02*
X1303020Y697230D01*
X1300480Y702310D01*
X1305560Y699770D01*
X1310640Y702310D01*
X1308100Y697230D01*
X1310640Y692150D01*
X1305560Y694690D01*
X1300480Y692150D01*
X1319530Y688340D02*
X1322070Y693420D01*
X1319530Y698500D01*
X1324610Y695960D01*
X1329690Y698500D01*
X1327150Y693420D01*
X1329690Y688340D01*
X1324610Y690880D01*
X1319530Y688340D01*
X1281430Y643890D02*
X1283970Y648970D01*
X1281430Y654050D01*
X1286510Y651510D01*
X1291590Y654050D01*
X1289050Y648970D01*
X1291590Y643890D01*
X1286510Y646430D01*
X1281430Y643890D01*
X1386840Y478790D02*
X1389380Y483870D01*
X1386840Y488950D01*
X1391920Y486410D01*
X1397000Y488950D01*
X1394460Y483870D01*
X1397000Y478790D01*
X1391920Y481330D01*
X1386840Y478790D01*
X1316990Y539750D02*
X1319530Y544830D01*
X1316990Y549910D01*
X1322070Y547370D01*
X1327150Y549910D01*
X1324610Y544830D01*
X1327150Y539750D01*
X1322070Y542290D01*
X1316990Y539750D01*
X1308100Y554990D02*
X1310640Y560070D01*
X1308100Y565150D01*
X1313180Y562610D01*
X1318260Y565150D01*
X1315720Y560070D01*
X1318260Y554990D01*
X1313180Y557530D01*
X1308100Y554990D01*
X1234440Y544830D02*
X1236980Y549910D01*
X1234440Y554990D01*
X1239520Y552450D01*
X1244600Y554990D01*
X1242060Y549910D01*
X1244600Y544830D01*
X1239520Y547370D01*
X1234440Y544830D01*
X1300528Y516938D02*
X1303068Y522018D01*
X1300528Y527098D01*
X1305608Y524558D01*
X1310688Y527098D01*
X1308148Y522018D01*
X1310688Y516938D01*
X1305608Y519478D01*
X1300528Y516938D01*
X1281430Y543560D02*
X1283970Y548640D01*
X1281430Y553720D01*
X1286510Y551180D01*
X1291590Y553720D01*
X1289050Y548640D01*
X1291590Y543560D01*
X1286510Y546100D01*
X1281430Y543560D01*
X1285240Y524510D02*
X1287780Y529590D01*
X1285240Y534670D01*
X1290320Y532130D01*
X1295400Y534670D01*
X1292860Y529590D01*
X1295400Y524510D01*
X1290320Y527050D01*
X1285240Y524510D01*
X1277620D02*
X1280160Y529590D01*
X1277620Y534670D01*
X1282700Y532130D01*
X1287780Y534670D01*
X1285240Y529590D01*
X1287780Y524510D01*
X1282700Y527050D01*
X1277620Y524510D01*
X1273810Y515620D02*
X1276350Y520700D01*
X1273810Y525780D01*
X1278890Y523240D01*
X1283970Y525780D01*
X1281430Y520700D01*
X1283970Y515620D01*
X1278890Y518160D01*
X1273810Y515620D01*
X1249680Y551180D02*
X1252220Y556260D01*
X1249680Y561340D01*
X1254760Y558800D01*
X1259840Y561340D01*
X1257300Y556260D01*
X1259840Y551180D01*
X1254760Y553720D01*
X1249680Y551180D01*
X1280160Y570230D02*
X1282700Y575310D01*
X1280160Y580390D01*
X1285240Y577850D01*
X1290320Y580390D01*
X1287780Y575310D01*
X1290320Y570230D01*
X1285240Y572770D01*
X1280160Y570230D01*
X1281430Y457200D02*
X1283970Y462280D01*
X1281430Y467360D01*
X1286510Y464820D01*
X1291590Y467360D01*
X1289050Y462280D01*
X1291590Y457200D01*
X1286510Y459740D01*
X1281430Y457200D01*
X1210310Y556260D02*
X1212850Y561340D01*
X1210310Y566420D01*
X1215390Y563880D01*
X1220470Y566420D01*
X1217930Y561340D01*
X1220470Y556260D01*
X1215390Y558800D01*
X1210310Y556260D01*
X1201420Y548640D02*
X1203960Y553720D01*
X1201420Y558800D01*
X1206500Y556260D01*
X1211580Y558800D01*
X1209040Y553720D01*
X1211580Y548640D01*
X1206500Y551180D01*
X1201420Y548640D01*
X1178560Y716280D02*
X1181100Y721360D01*
X1178560Y726440D01*
X1183640Y723900D01*
X1188720Y726440D01*
X1186180Y721360D01*
X1188720Y716280D01*
X1183640Y718820D01*
X1178560Y716280D01*
X1179830Y657860D02*
X1182370Y662940D01*
X1179830Y668020D01*
X1184910Y665480D01*
X1189990Y668020D01*
X1187450Y662940D01*
X1189990Y657860D01*
X1184910Y660400D01*
X1179830Y657860D01*
X1259840Y769620D02*
X1262380Y774700D01*
X1259840Y779780D01*
X1264920Y777240D01*
X1270000Y779780D01*
X1267460Y774700D01*
X1270000Y769620D01*
X1264920Y772160D01*
X1259840Y769620D01*
X1240790Y749300D02*
X1243330Y754380D01*
X1240790Y759460D01*
X1245870Y756920D01*
X1250950Y759460D01*
X1248410Y754380D01*
X1250950Y749300D01*
X1245870Y751840D01*
X1240790Y749300D01*
X1235710Y736600D02*
X1238250Y741680D01*
X1235710Y746760D01*
X1240790Y744220D01*
X1245870Y746760D01*
X1243330Y741680D01*
X1245870Y736600D01*
X1240790Y739140D01*
X1235710Y736600D01*
X1270000Y742950D02*
X1272540Y748030D01*
X1270000Y753110D01*
X1275080Y750570D01*
X1280160Y753110D01*
X1277620Y748030D01*
X1280160Y742950D01*
X1275080Y745490D01*
X1270000Y742950D01*
X1269088Y706478D02*
X1271628Y711557D01*
X1269088Y716637D01*
X1274167Y714098D01*
X1279248Y716637D01*
X1276708Y711557D01*
X1279248Y706478D01*
X1274167Y709017D01*
X1269088Y706478D01*
X1176799Y745334D02*
X1179339Y750414D01*
X1176799Y755494D01*
X1181879Y752954D01*
X1186959Y755494D01*
X1184419Y750414D01*
X1186959Y745334D01*
X1181879Y747874D01*
X1176799Y745334D01*
X1174372Y703203D02*
X1176913Y708282D01*
X1174372Y713363D01*
X1179453Y710823D01*
X1184532Y713363D01*
X1181992Y708282D01*
X1184532Y703203D01*
X1179453Y705742D01*
X1174372Y703203D01*
X1169670Y746760D02*
X1172210Y751840D01*
X1169670Y756920D01*
X1174750Y754380D01*
X1179830Y756920D01*
X1177290Y751840D01*
X1179830Y746760D01*
X1174750Y749300D01*
X1169670Y746760D01*
X1210310Y735330D02*
X1212850Y740410D01*
X1210310Y745490D01*
X1215390Y742950D01*
X1220470Y745490D01*
X1217930Y740410D01*
X1220470Y735330D01*
X1215390Y737870D01*
X1210310Y735330D01*
X1145540Y702310D02*
X1148080Y707390D01*
X1145540Y712470D01*
X1150620Y709930D01*
X1155700Y712470D01*
X1153160Y707390D01*
X1155700Y702310D01*
X1150620Y704850D01*
X1145540Y702310D01*
X1093470Y660400D02*
X1096010Y665480D01*
X1093470Y670560D01*
X1098550Y668020D01*
X1103630Y670560D01*
X1101090Y665480D01*
X1103630Y660400D01*
X1098550Y662940D01*
X1093470Y660400D01*
X1113790Y659130D02*
X1116330Y664210D01*
X1113790Y669290D01*
X1118870Y666750D01*
X1123950Y669290D01*
X1121410Y664210D01*
X1123950Y659130D01*
X1118870Y661670D01*
X1113790Y659130D01*
X1055370Y661670D02*
X1057910Y666750D01*
X1055370Y671830D01*
X1060450Y669290D01*
X1065530Y671830D01*
X1062990Y666750D01*
X1065530Y661670D01*
X1060450Y664210D01*
X1055370Y661670D01*
X1108710Y524510D02*
X1111250Y529590D01*
X1108710Y534670D01*
X1113790Y532130D01*
X1118870Y534670D01*
X1116330Y529590D01*
X1118870Y524510D01*
X1113790Y527050D01*
X1108710Y524510D01*
X1153160Y774700D02*
X1155700Y779780D01*
X1153160Y784860D01*
X1158240Y782320D01*
X1163320Y784860D01*
X1160780Y779780D01*
X1163320Y774700D01*
X1158240Y777240D01*
X1153160Y774700D01*
D65*
X1066800Y457200D02*
G03*
X1066800Y457200I-5080J0D01*
G01*
X1092200D02*
G03*
X1092200Y457200I-5080J0D01*
G01*
X1117600D02*
G03*
X1117600Y457200I-5080J0D01*
G01*
M02*
