G04*
G04 #@! TF.GenerationSoftware,Altium Limited,Altium Designer,24.0.1 (36)*
G04*
G04 Layer_Color=12632256*
%FSLAX44Y44*%
%MOMM*%
G71*
G04*
G04 #@! TF.SameCoordinates,A0A0B38D-AE15-4D5A-875B-66CD6CC2A3C5*
G04*
G04*
G04 #@! TF.FilePolarity,Positive*
G04*
G01*
G75*
%ADD52C,1.5080*%
%ADD54C,1.6500*%
%ADD55C,4.8000*%
%ADD56R,1.6650X1.6650*%
%ADD57C,1.6650*%
D52*
X1460430Y730250D02*
D03*
X1485430D02*
D03*
X1435430D02*
D03*
X1410430D02*
D03*
X1510430D02*
D03*
X1535430D02*
D03*
X1560430D02*
D03*
X1585430D02*
D03*
X1443990Y452120D02*
D03*
X1418990D02*
D03*
X1318990D02*
D03*
X1343990D02*
D03*
X1393990D02*
D03*
X1368990D02*
D03*
X1315188Y802640D02*
D03*
X1290188D02*
D03*
X1265188D02*
D03*
X1240188D02*
D03*
X1432960Y800100D02*
D03*
X1457960D02*
D03*
X1407960D02*
D03*
X1382960D02*
D03*
X1482960D02*
D03*
X1507960D02*
D03*
X1532960D02*
D03*
X1557960D02*
D03*
X1176090Y802640D02*
D03*
X1151090D02*
D03*
X1126090D02*
D03*
X1101090D02*
D03*
D54*
X1560310Y423270D02*
D03*
X1495310D02*
D03*
X1560310Y468270D02*
D03*
X1495310D02*
D03*
D55*
X1115850Y605530D02*
D03*
X1057850D02*
D03*
X1085850Y557530D02*
D03*
D56*
X1061720Y457200D02*
D03*
D57*
X1087120D02*
D03*
X1112520D02*
D03*
M02*
