G04*
G04 #@! TF.GenerationSoftware,Altium Limited,Altium Designer,24.0.1 (36)*
G04*
G04 Layer_Color=65535*
%FSLAX44Y44*%
%MOMM*%
G71*
G04*
G04 #@! TF.SameCoordinates,AE154294-96CE-490B-A9AE-858F9377290F*
G04*
G04*
G04 #@! TF.FilePolarity,Positive*
G04*
G01*
G75*
%ADD10C,0.2500*%
%ADD11C,0.2000*%
%ADD12C,0.6000*%
%ADD13C,0.1000*%
%ADD14C,0.1270*%
%ADD15C,0.2540*%
D10*
X1035850Y784530D02*
G03*
X1035850Y784530I-1250J0D01*
G01*
X1355380Y506930D02*
G03*
X1355380Y506930I-1250J0D01*
G01*
D11*
X1306540Y718550D02*
G03*
X1306540Y716550I0J-1000D01*
G01*
D02*
G03*
X1306540Y718550I0J1000D01*
G01*
X1287490Y452120D02*
G03*
X1287490Y452120I-1000J0D01*
G01*
X1378930Y730250D02*
G03*
X1378930Y730250I-1000J0D01*
G01*
X1571310Y419120D02*
G03*
X1571310Y419120I-840J0D01*
G01*
X1278600Y671560D02*
G03*
X1278600Y669560I0J-1000D01*
G01*
D02*
G03*
X1278600Y671560I0J1000D01*
G01*
X1300800Y763000D02*
G03*
X1300800Y761000I0J-1000D01*
G01*
D02*
G03*
X1300800Y763000I0J1000D01*
G01*
X1191580Y760460D02*
G03*
X1191580Y758460I0J-1000D01*
G01*
D02*
G03*
X1191580Y760460I0J1000D01*
G01*
X1126810Y686800D02*
G03*
X1126810Y684800I0J-1000D01*
G01*
D02*
G03*
X1126810Y686800I0J1000D01*
G01*
X1125540Y756650D02*
G03*
X1125540Y754650I0J-1000D01*
G01*
D02*
G03*
X1125540Y756650I0J1000D01*
G01*
X1346187Y802640D02*
G03*
X1346187Y802640I-1000J0D01*
G01*
X1351460Y800100D02*
G03*
X1351460Y800100I-1000J0D01*
G01*
X1207090Y802640D02*
G03*
X1207090Y802640I-1000J0D01*
G01*
X1149160Y606920D02*
G03*
X1149160Y606920I-640J0D01*
G01*
X1025780Y691435D02*
G03*
X1025780Y691435I-500J0D01*
G01*
X1277750Y533790D02*
G03*
X1277750Y533790I-1000J0D01*
G01*
X985350Y719280D02*
Y776780D01*
Y719280D02*
X1059350D01*
Y772030D02*
Y776780D01*
Y719280D02*
Y753530D01*
X985350Y776780D02*
X1059350D01*
X1324540Y711300D02*
X1328540D01*
X1324540Y723800D02*
X1328540D01*
X1502910Y477040D02*
X1549150D01*
X1502910Y417040D02*
X1549150D01*
X1496540Y436310D02*
Y457880D01*
X1556540Y436310D02*
Y457880D01*
X1596390Y464650D02*
Y475150D01*
X1482630Y521430D02*
Y644430D01*
X1359630Y521430D02*
Y644430D01*
X1482630D01*
X1359630Y521430D02*
X1482630D01*
X1296600Y664310D02*
X1300600D01*
X1296600Y676810D02*
X1300600D01*
X1318800Y755750D02*
X1322800D01*
X1318800Y768250D02*
X1322800D01*
X1209580Y753210D02*
X1213580D01*
X1209580Y765710D02*
X1213580D01*
X1208150Y732830D02*
X1245150D01*
Y654830D02*
Y732830D01*
X1208150Y654830D02*
X1245150D01*
X1208150D02*
Y732830D01*
X1189900Y735330D02*
X1204650D01*
X1150620Y716110D02*
Y726610D01*
X1144810Y679550D02*
X1148810D01*
X1144810Y692050D02*
X1148810D01*
X1143540Y749400D02*
X1147540D01*
X1143540Y761900D02*
X1147540D01*
X979850Y567530D02*
X1052350D01*
X979850D02*
Y657530D01*
X1124850D01*
X1029620Y512700D02*
X1144620D01*
X1029620Y437200D02*
Y512700D01*
Y437200D02*
X1144620D01*
Y512700D01*
X1620390Y662030D02*
X1620890Y548030D01*
X1610390Y662030D02*
X1620390D01*
X1610390Y548030D02*
X1620890D01*
X1620390Y553030D02*
X1620890Y548030D01*
X1572390D02*
X1582390D01*
X1571890Y662030D02*
X1572390Y548030D01*
X1571890Y662030D02*
X1582390D01*
D12*
X1372630Y531430D02*
G03*
X1372630Y531430I-3000J0D01*
G01*
D13*
X1061720Y433200D02*
G03*
X1061720Y432200I0J-500D01*
G01*
D02*
G03*
X1061720Y433200I0J500D01*
G01*
X1596390Y525030D02*
G03*
X1596390Y526030I0J500D01*
G01*
D02*
G03*
X1596390Y525030I0J-500D01*
G01*
X1191800Y587250D02*
X1195800D01*
X1191800Y619250D02*
X1195800D01*
D14*
X1468490Y418120D02*
Y475620D01*
X1294490D02*
X1468490D01*
X1294490Y418120D02*
Y475620D01*
Y418120D02*
X1468490D01*
X1385930Y696250D02*
X1609930D01*
X1385930D02*
Y753750D01*
X1609930D01*
Y696250D02*
Y753750D01*
X1215188Y786640D02*
X1340188D01*
X1215188D02*
Y824640D01*
X1340188D01*
Y786640D02*
Y824640D01*
X1358460Y766100D02*
X1582460D01*
X1358460D02*
Y823600D01*
X1582460D01*
Y766100D02*
Y823600D01*
X1076090Y786640D02*
X1201090D01*
X1076090D02*
Y824640D01*
X1201090D01*
Y786640D02*
Y824640D01*
X1269200Y488540D02*
Y524040D01*
X1169200Y488540D02*
Y524040D01*
X1269200Y488540D02*
Y524040D01*
X1169200Y488540D02*
Y524040D01*
D15*
X995931Y810001D02*
X990852D01*
X993391D01*
Y797305D01*
X990852Y794766D01*
X988313D01*
X985774Y797305D01*
X1011166Y810001D02*
X1006087Y807462D01*
X1001009Y802383D01*
Y797305D01*
X1003548Y794766D01*
X1008627D01*
X1011166Y797305D01*
Y799844D01*
X1008627Y802383D01*
X1001009D01*
X1304849Y732872D02*
Y742868D01*
X1309848D01*
X1311514Y741202D01*
Y737870D01*
X1309848Y736204D01*
X1304849D01*
X1308182D02*
X1311514Y732872D01*
X1321511Y742868D02*
X1318178Y741202D01*
X1314846Y737870D01*
Y734538D01*
X1316512Y732872D01*
X1319845D01*
X1321511Y734538D01*
Y736204D01*
X1319845Y737870D01*
X1314846D01*
X1303894Y491408D02*
X1300562D01*
X1302228D01*
Y483078D01*
X1300562Y481412D01*
X1298896D01*
X1297229Y483078D01*
X1307226Y489742D02*
X1308892Y491408D01*
X1312224D01*
X1313891Y489742D01*
Y488076D01*
X1312224Y486410D01*
X1310558D01*
X1312224D01*
X1313891Y484744D01*
Y483078D01*
X1312224Y481412D01*
X1308892D01*
X1307226Y483078D01*
X1621394Y708578D02*
X1618062D01*
X1619728D01*
Y700248D01*
X1618062Y698582D01*
X1616396D01*
X1614729Y700248D01*
X1631391Y708578D02*
X1624726D01*
Y703580D01*
X1628058Y705246D01*
X1629724D01*
X1631391Y703580D01*
Y700248D01*
X1629724Y698582D01*
X1626392D01*
X1624726Y700248D01*
X1515110Y491012D02*
X1513444Y492678D01*
X1510112D01*
X1508445Y491012D01*
Y489346D01*
X1510112Y487680D01*
X1513444D01*
X1515110Y486014D01*
Y484348D01*
X1513444Y482682D01*
X1510112D01*
X1508445Y484348D01*
X1518442Y482682D02*
X1521774D01*
X1520108D01*
Y492678D01*
X1518442Y491012D01*
X1615959Y502442D02*
X1614292Y504108D01*
X1610960D01*
X1609294Y502442D01*
Y495778D01*
X1610960Y494112D01*
X1614292D01*
X1615959Y495778D01*
X1619291Y494112D02*
X1622623D01*
X1620957D01*
Y504108D01*
X1619291Y502442D01*
X1627621D02*
X1629288Y504108D01*
X1632620D01*
X1634286Y502442D01*
Y500776D01*
X1632620Y499110D01*
X1630954D01*
X1632620D01*
X1634286Y497444D01*
Y495778D01*
X1632620Y494112D01*
X1629288D01*
X1627621Y495778D01*
X1615999Y466172D02*
Y476168D01*
X1620998D01*
X1622664Y474502D01*
Y471170D01*
X1620998Y469504D01*
X1615999D01*
X1619332D02*
X1622664Y466172D01*
X1625996Y474502D02*
X1627662Y476168D01*
X1630995D01*
X1632661Y474502D01*
Y472836D01*
X1630995Y471170D01*
X1632661Y469504D01*
Y467838D01*
X1630995Y466172D01*
X1627662D01*
X1625996Y467838D01*
Y469504D01*
X1627662Y471170D01*
X1625996Y472836D01*
Y474502D01*
X1627662Y471170D02*
X1630995D01*
X1534678Y562132D02*
X1533012Y563798D01*
X1529680D01*
X1528014Y562132D01*
Y555468D01*
X1529680Y553802D01*
X1533012D01*
X1534678Y555468D01*
X1538011Y553802D02*
X1541343D01*
X1539677D01*
Y563798D01*
X1538011Y562132D01*
X1546342D02*
X1548008Y563798D01*
X1551340D01*
X1553006Y562132D01*
Y555468D01*
X1551340Y553802D01*
X1548008D01*
X1546342Y555468D01*
Y562132D01*
X1536345Y522762D02*
X1534679Y524428D01*
X1531346D01*
X1529680Y522762D01*
Y516098D01*
X1531346Y514432D01*
X1534679D01*
X1536345Y516098D01*
X1539677Y514432D02*
X1543009D01*
X1541343D01*
Y524428D01*
X1539677Y522762D01*
X1548008Y514432D02*
X1551340D01*
X1549674D01*
Y524428D01*
X1548008Y522762D01*
X1534678Y604042D02*
X1533012Y605708D01*
X1529680D01*
X1528014Y604042D01*
Y597378D01*
X1529680Y595712D01*
X1533012D01*
X1534678Y597378D01*
X1538011Y595712D02*
X1541343D01*
X1539677D01*
Y605708D01*
X1538011Y604042D01*
X1553006Y595712D02*
X1546342D01*
X1553006Y602376D01*
Y604042D01*
X1551340Y605708D01*
X1548008D01*
X1546342Y604042D01*
X1533764Y689132D02*
X1532098Y690798D01*
X1528766D01*
X1527099Y689132D01*
Y682468D01*
X1528766Y680802D01*
X1532098D01*
X1533764Y682468D01*
X1537096D02*
X1538762Y680802D01*
X1542095D01*
X1543761Y682468D01*
Y689132D01*
X1542095Y690798D01*
X1538762D01*
X1537096Y689132D01*
Y687466D01*
X1538762Y685800D01*
X1543761D01*
X1535034Y647222D02*
X1533368Y648888D01*
X1530036D01*
X1528369Y647222D01*
Y640558D01*
X1530036Y638892D01*
X1533368D01*
X1535034Y640558D01*
X1545031Y648888D02*
X1541698Y647222D01*
X1538366Y643890D01*
Y640558D01*
X1540032Y638892D01*
X1543365D01*
X1545031Y640558D01*
Y642224D01*
X1543365Y643890D01*
X1538366D01*
X1340806Y670478D02*
Y662148D01*
X1342472Y660482D01*
X1345804D01*
X1347470Y662148D01*
Y670478D01*
X1350802Y660482D02*
X1354135D01*
X1352468D01*
Y670478D01*
X1350802Y668812D01*
X1278179Y683342D02*
Y693338D01*
X1283178D01*
X1284844Y691672D01*
Y688340D01*
X1283178Y686674D01*
X1278179D01*
X1281512D02*
X1284844Y683342D01*
X1288176Y693338D02*
X1294841D01*
Y691672D01*
X1288176Y685008D01*
Y683342D01*
X1306119Y773512D02*
Y783508D01*
X1311118D01*
X1312784Y781842D01*
Y778510D01*
X1311118Y776844D01*
X1306119D01*
X1309452D02*
X1312784Y773512D01*
X1321115D02*
Y783508D01*
X1316116Y778510D01*
X1322781D01*
X1259444Y780572D02*
X1257778Y782238D01*
X1254445D01*
X1252779Y780572D01*
Y773908D01*
X1254445Y772242D01*
X1257778D01*
X1259444Y773908D01*
X1267775Y772242D02*
Y782238D01*
X1262776Y777240D01*
X1269441D01*
X1192215Y770972D02*
Y780968D01*
X1197214D01*
X1198880Y779302D01*
Y775970D01*
X1197214Y774304D01*
X1192215D01*
X1195548D02*
X1198880Y770972D01*
X1202212D02*
X1205545D01*
X1203878D01*
Y780968D01*
X1202212Y779302D01*
X1186739Y652698D02*
Y644368D01*
X1188406Y642702D01*
X1191738D01*
X1193404Y644368D01*
Y652698D01*
X1196736Y651032D02*
X1198402Y652698D01*
X1201734D01*
X1203401Y651032D01*
Y649366D01*
X1201734Y647700D01*
X1200068D01*
X1201734D01*
X1203401Y646034D01*
Y644368D01*
X1201734Y642702D01*
X1198402D01*
X1196736Y644368D01*
X1222777Y574122D02*
Y584118D01*
X1227775D01*
X1229442Y582452D01*
Y579120D01*
X1227775Y577454D01*
X1222777D01*
X1239438Y582452D02*
X1237772Y584118D01*
X1234440D01*
X1232774Y582452D01*
Y580786D01*
X1234440Y579120D01*
X1237772D01*
X1239438Y577454D01*
Y575788D01*
X1237772Y574122D01*
X1234440D01*
X1232774Y575788D01*
X1242771Y574122D02*
X1246103D01*
X1244437D01*
Y584118D01*
X1242771Y582452D01*
X1297544Y639602D02*
X1295878Y641268D01*
X1292545D01*
X1290879Y639602D01*
Y632938D01*
X1292545Y631272D01*
X1295878D01*
X1297544Y632938D01*
X1300876Y641268D02*
X1307541D01*
Y639602D01*
X1300876Y632938D01*
Y631272D01*
X1265794Y640872D02*
X1264128Y642538D01*
X1260796D01*
X1259129Y640872D01*
Y634208D01*
X1260796Y632542D01*
X1264128D01*
X1265794Y634208D01*
X1269126Y640872D02*
X1270792Y642538D01*
X1274125D01*
X1275791Y640872D01*
Y639206D01*
X1274125Y637540D01*
X1275791Y635874D01*
Y634208D01*
X1274125Y632542D01*
X1270792D01*
X1269126Y634208D01*
Y635874D01*
X1270792Y637540D01*
X1269126Y639206D01*
Y640872D01*
X1270792Y637540D02*
X1274125D01*
X1297544Y595152D02*
X1295878Y596818D01*
X1292545D01*
X1290879Y595152D01*
Y588488D01*
X1292545Y586822D01*
X1295878D01*
X1297544Y588488D01*
X1300876Y595152D02*
X1302542Y596818D01*
X1305874D01*
X1307541Y595152D01*
Y593486D01*
X1305874Y591820D01*
X1304208D01*
X1305874D01*
X1307541Y590154D01*
Y588488D01*
X1305874Y586822D01*
X1302542D01*
X1300876Y588488D01*
X1269604Y593882D02*
X1267938Y595548D01*
X1264605D01*
X1262939Y593882D01*
Y587218D01*
X1264605Y585552D01*
X1267938D01*
X1269604Y587218D01*
X1279601Y595548D02*
X1272936D01*
Y590550D01*
X1276268Y592216D01*
X1277934D01*
X1279601Y590550D01*
Y587218D01*
X1277934Y585552D01*
X1274602D01*
X1272936Y587218D01*
X1256030Y463072D02*
X1254364Y464738D01*
X1251032D01*
X1249365Y463072D01*
Y456408D01*
X1251032Y454742D01*
X1254364D01*
X1256030Y456408D01*
X1259362Y454742D02*
X1262694D01*
X1261028D01*
Y464738D01*
X1259362Y463072D01*
X1206104D02*
X1204438Y464738D01*
X1201105D01*
X1199439Y463072D01*
Y456408D01*
X1201105Y454742D01*
X1204438D01*
X1206104Y456408D01*
X1216101Y454742D02*
X1209436D01*
X1216101Y461406D01*
Y463072D01*
X1214435Y464738D01*
X1211102D01*
X1209436Y463072D01*
X1087638Y715802D02*
X1085972Y717468D01*
X1082640D01*
X1080974Y715802D01*
Y709138D01*
X1082640Y707472D01*
X1085972D01*
X1087638Y709138D01*
X1090971Y707472D02*
X1094303D01*
X1092637D01*
Y717468D01*
X1090971Y715802D01*
X1105966Y717468D02*
X1099302D01*
Y712470D01*
X1102634Y714136D01*
X1104300D01*
X1105966Y712470D01*
Y709138D01*
X1104300Y707472D01*
X1100968D01*
X1099302Y709138D01*
X1113079Y717632D02*
Y727628D01*
X1118078D01*
X1119744Y725962D01*
Y722630D01*
X1118078Y720964D01*
X1113079D01*
X1116412D02*
X1119744Y717632D01*
X1129741Y727628D02*
X1123076D01*
Y722630D01*
X1126408Y724296D01*
X1128074D01*
X1129741Y722630D01*
Y719298D01*
X1128074Y717632D01*
X1124742D01*
X1123076Y719298D01*
X1138479Y655402D02*
Y665398D01*
X1143478D01*
X1145144Y663732D01*
Y660400D01*
X1143478Y658734D01*
X1138479D01*
X1141812D02*
X1145144Y655402D01*
X1148476Y663732D02*
X1150142Y665398D01*
X1153475D01*
X1155141Y663732D01*
Y662066D01*
X1153475Y660400D01*
X1151808D01*
X1153475D01*
X1155141Y658734D01*
Y657068D01*
X1153475Y655402D01*
X1150142D01*
X1148476Y657068D01*
X1097839Y751922D02*
Y761918D01*
X1102838D01*
X1104504Y760252D01*
Y756920D01*
X1102838Y755254D01*
X1097839D01*
X1101172D02*
X1104504Y751922D01*
X1114501D02*
X1107836D01*
X1114501Y758586D01*
Y760252D01*
X1112834Y761918D01*
X1109502D01*
X1107836Y760252D01*
X1203564Y827958D02*
X1200232D01*
X1201898D01*
Y819628D01*
X1200232Y817962D01*
X1198566D01*
X1196899Y819628D01*
X1211895Y817962D02*
Y827958D01*
X1206896Y822960D01*
X1213561D01*
X1595120Y779698D02*
X1591788D01*
X1593454D01*
Y771368D01*
X1591788Y769702D01*
X1590122D01*
X1588456Y771368D01*
X1598452Y769702D02*
X1601785D01*
X1600118D01*
Y779698D01*
X1598452Y778032D01*
X1058784Y826688D02*
X1055452D01*
X1057118D01*
Y818358D01*
X1055452Y816692D01*
X1053785D01*
X1052119Y818358D01*
X1068781Y816692D02*
X1062116D01*
X1068781Y823356D01*
Y825022D01*
X1067114Y826688D01*
X1063782D01*
X1062116Y825022D01*
X1046024Y552108D02*
X1042692D01*
X1044358D01*
Y543778D01*
X1042692Y542112D01*
X1041025D01*
X1039359Y543778D01*
X1049356Y552108D02*
X1056021D01*
Y550442D01*
X1049356Y543778D01*
Y542112D01*
X1128319Y537128D02*
Y528798D01*
X1129986Y527132D01*
X1133318D01*
X1134984Y528798D01*
Y537128D01*
X1143315Y527132D02*
Y537128D01*
X1138316Y532130D01*
X1144981D01*
X1029015Y725627D02*
X1027348Y727293D01*
X1024016D01*
X1022350Y725627D01*
Y718962D01*
X1024016Y717296D01*
X1027348D01*
X1029015Y718962D01*
X1032347Y717296D02*
X1035679D01*
X1034013D01*
Y727293D01*
X1032347Y725627D01*
X1045676Y717296D02*
Y727293D01*
X1040677Y722294D01*
X1047342D01*
X1563878Y713481D02*
Y710942D01*
X1568956Y705863D01*
X1574035Y710942D01*
Y713481D01*
X1568956Y705863D02*
Y698246D01*
X1579113D02*
X1584191D01*
X1581652D01*
Y713481D01*
X1579113Y710942D01*
X1168908Y560669D02*
Y552338D01*
X1170574Y550672D01*
X1173906D01*
X1175573Y552338D01*
Y560669D01*
X1185569Y550672D02*
X1178905D01*
X1185569Y557337D01*
Y559003D01*
X1183903Y560669D01*
X1180571D01*
X1178905Y559003D01*
M02*
