M48
;Layer_Color=9474304
;FILE_FORMAT=4:4
METRIC,LZ
;TYPE=PLATED
T01F00S00C0.3000
T02F00S00C1.0000
T03F00S00C1.1000
T04F00S00C1.1100
T05F00S00C3.0000
T06F00S00C3.2000
;TYPE=NON_PLATED
T07F00S00C1.1000
%
T01
X012192Y0042672
X0123952Y0044069
X0128651Y0046228
X0127889Y005207
X012827Y0052959
X0129032
X01305608Y00522018
X0132334Y0052324
Y0051562
Y0053721
X0132207Y0054483
X0131318Y0056007
X0128651Y0054864
X0128524Y0057531
X0125476Y0055626
X0123952Y0054991
X0121539Y0056134
X012065Y0055372
X01327737Y0058547
X0132334Y006223
X0132461Y0062992
X013208Y0063754
X01318794Y00645878
X0132461Y00651494
X0128651Y0064897
X0130556Y0069723
X0132461Y0069342
X01274167Y00711557
X0127508Y0074803
X0124587Y0075438
X0124079Y0074168
X0121539Y0074041
X0126492Y007747
X01283387Y00780363
X0129032Y0077089
X013462Y0078486
X01436163Y00764333
X0147447Y00762
X0152781Y0075819
X0151638Y0067945
X0152273Y0066167
X015494Y0063246
X0155321Y0057277
X0155702Y0055626
X0152273Y00551228
X01516884Y00560836
X0147955Y0047498
Y0043434
X0139192Y0048387
X015748Y004953
X0155575Y0069088
X0146177
X0143383Y0067564
X014097Y0068961
X0139446Y0068072
X0138684Y0068453
X0118491Y0066294
X01179453Y00708282
X0118364Y0072136
X0118237Y0073025
X0116713Y0073533
X0115697
X0117475Y0075184
X01181879Y00750414
X0117602Y00774748
X0115824Y0077978
X0112776Y0077724
X0108458Y0077851
X010795Y0077089
X0106045Y0066675
X0109855Y0066548
X0111887Y0066421
X0115062Y0070739
X0111379Y0052959
X013462Y0079375
T02
X0131899Y0045212
X0134399
X0136899
X0139399
X0141899
X0144399
X0143543Y0073025
X0146043
X0148543
X0151043
X0153543
X0156043
X0158543
X0141043
X0103485Y0074278
X0100985
X0110109Y0080264
X0112609
X0115109
X0117609
X01240188
X01265188
X01290188
X01315188
X0138296Y008001
X0140796
X0143296
X0145796
X0148296
X0150796
X0153296
X0155796
T03
X0149404Y0042454
Y0046954
X0155904
Y0042454
T04
X0106172Y004572
X0108712
X0111252
T05
X0160401Y0043561
X0099568
X0099695Y0080899
X0161376
T06
X0108585Y0055753
X0105785Y0060553
X0111585
T07
X0105085Y0076278
M30
