G04*
G04 #@! TF.GenerationSoftware,Altium Limited,Altium Designer,24.0.1 (36)*
G04*
G04 Layer_Color=255*
%FSLAX44Y44*%
%MOMM*%
G71*
G04*
G04 #@! TF.SameCoordinates,AE154294-96CE-490B-A9AE-858F9377290F*
G04*
G04*
G04 #@! TF.FilePolarity,Positive*
G04*
G01*
G75*
%ADD42C,1.1000*%
%ADD43C,1.5500*%
%ADD44R,1.5500X1.5500*%
%ADD56C,1.5080*%
%ADD57R,1.5080X1.5080*%
%ADD58C,1.6500*%
%ADD59C,4.8000*%
%ADD60R,1.6650X1.6650*%
%ADD61C,1.6650*%
D42*
X1050850Y762780D02*
D03*
D43*
X1009850Y742780D02*
D03*
D44*
X1034850D02*
D03*
D56*
X1443990Y452120D02*
D03*
X1418990D02*
D03*
X1343990D02*
D03*
X1393990D02*
D03*
X1368990D02*
D03*
X1460430Y730250D02*
D03*
X1485430D02*
D03*
X1435430D02*
D03*
X1510430D02*
D03*
X1535430D02*
D03*
X1560430D02*
D03*
X1585430D02*
D03*
X1290188Y802640D02*
D03*
X1265188D02*
D03*
X1240188D02*
D03*
X1432960Y800100D02*
D03*
X1457960D02*
D03*
X1407960D02*
D03*
X1482960D02*
D03*
X1507960D02*
D03*
X1532960D02*
D03*
X1557960D02*
D03*
X1151090Y802640D02*
D03*
X1126090D02*
D03*
X1101090D02*
D03*
D57*
X1318990Y452120D02*
D03*
X1410430Y730250D02*
D03*
X1315188Y802640D02*
D03*
X1382960Y800100D02*
D03*
X1176090Y802640D02*
D03*
D58*
X1559040Y424540D02*
D03*
X1494040D02*
D03*
X1559040Y469540D02*
D03*
X1494040D02*
D03*
D59*
X1115850Y605530D02*
D03*
X1057850D02*
D03*
X1085850Y557530D02*
D03*
D60*
X1061720Y457200D02*
D03*
D61*
X1087120D02*
D03*
X1112520D02*
D03*
M02*
