G04*
G04 #@! TF.GenerationSoftware,Altium Limited,Altium Designer,24.0.1 (36)*
G04*
G04 Layer_Physical_Order=1*
G04 Layer_Color=255*
%FSLAX44Y44*%
%MOMM*%
G71*
G04*
G04 #@! TF.SameCoordinates,AE154294-96CE-490B-A9AE-858F9377290F*
G04*
G04*
G04 #@! TF.FilePolarity,Positive*
G04*
G01*
G75*
%ADD16R,1.1500X1.1500*%
%ADD17R,1.3900X0.9600*%
%ADD18R,1.4000X1.0000*%
%ADD19R,0.9600X1.3900*%
%ADD20R,1.0000X1.4000*%
%ADD21R,1.4700X1.0200*%
%ADD22O,2.1000X0.3000*%
%ADD23O,0.3000X2.1000*%
%ADD24R,1.4750X0.4500*%
%ADD25R,2.0000X3.5000*%
%ADD26R,1.1500X1.8000*%
%ADD27R,2.0000X5.5000*%
G04:AMPARAMS|DCode=28|XSize=1.31mm|YSize=0.62mm|CornerRadius=0.0775mm|HoleSize=0mm|Usage=FLASHONLY|Rotation=270.000|XOffset=0mm|YOffset=0mm|HoleType=Round|Shape=RoundedRectangle|*
%AMROUNDEDRECTD28*
21,1,1.3100,0.4650,0,0,270.0*
21,1,1.1550,0.6200,0,0,270.0*
1,1,0.1550,-0.2325,-0.5775*
1,1,0.1550,-0.2325,0.5775*
1,1,0.1550,0.2325,0.5775*
1,1,0.1550,0.2325,-0.5775*
%
%ADD28ROUNDEDRECTD28*%
%ADD42C,1.1000*%
%ADD43C,1.5500*%
%ADD44R,1.5500X1.5500*%
%ADD53C,0.1524*%
%ADD54C,0.3000*%
%ADD55C,2.5000*%
%ADD56C,1.5080*%
%ADD57R,1.5080X1.5080*%
%ADD58C,1.6500*%
%ADD59C,4.8000*%
%ADD60R,1.6650X1.6650*%
%ADD61C,1.6650*%
%ADD62C,0.6000*%
%ADD63C,4.0000*%
D16*
X1317040Y717550D02*
D03*
X1336040D02*
D03*
X1289100Y670560D02*
D03*
X1308100D02*
D03*
X1311300Y762000D02*
D03*
X1330300D02*
D03*
X1202080Y759460D02*
D03*
X1221080D02*
D03*
X1137310Y685800D02*
D03*
X1156310D02*
D03*
X1136040Y755650D02*
D03*
X1155040D02*
D03*
D17*
X1170940Y427990D02*
D03*
Y441960D02*
D03*
X1619250Y763270D02*
D03*
X1536700Y531650D02*
D03*
Y547850D02*
D03*
Y492280D02*
D03*
Y508480D02*
D03*
X1534160Y654840D02*
D03*
Y671040D02*
D03*
X1297940Y604830D02*
D03*
Y621030D02*
D03*
X1268730Y606580D02*
D03*
Y622780D02*
D03*
X1297940Y560860D02*
D03*
Y577060D02*
D03*
D18*
X1619250Y778510D02*
D03*
D19*
X1601470Y499110D02*
D03*
X1585270D02*
D03*
X1273020Y760730D02*
D03*
X1256820D02*
D03*
X1268420Y443230D02*
D03*
X1252220D02*
D03*
X1219680D02*
D03*
X1203480D02*
D03*
D20*
X1605890Y469900D02*
D03*
X1586890D02*
D03*
X1141120Y721360D02*
D03*
X1160120D02*
D03*
D21*
X1535430Y585950D02*
D03*
Y569750D02*
D03*
Y612450D02*
D03*
Y628650D02*
D03*
X1271270Y559590D02*
D03*
Y575790D02*
D03*
X1092200Y681510D02*
D03*
Y697710D02*
D03*
D22*
X1345130Y522930D02*
D03*
Y527930D02*
D03*
Y532930D02*
D03*
Y537930D02*
D03*
Y542930D02*
D03*
Y547930D02*
D03*
Y552930D02*
D03*
Y557930D02*
D03*
Y562930D02*
D03*
Y567930D02*
D03*
Y572930D02*
D03*
Y577930D02*
D03*
Y582930D02*
D03*
Y587930D02*
D03*
Y592930D02*
D03*
Y597930D02*
D03*
Y602930D02*
D03*
Y607930D02*
D03*
Y612930D02*
D03*
Y617930D02*
D03*
Y622930D02*
D03*
Y627930D02*
D03*
Y632930D02*
D03*
Y637930D02*
D03*
Y642930D02*
D03*
X1497130D02*
D03*
Y637930D02*
D03*
Y632930D02*
D03*
Y627930D02*
D03*
Y622930D02*
D03*
Y617930D02*
D03*
Y612930D02*
D03*
Y607930D02*
D03*
Y602930D02*
D03*
Y597930D02*
D03*
Y592930D02*
D03*
Y587930D02*
D03*
Y582930D02*
D03*
Y577930D02*
D03*
Y572930D02*
D03*
Y567930D02*
D03*
Y562930D02*
D03*
Y557930D02*
D03*
Y552930D02*
D03*
Y547930D02*
D03*
Y542930D02*
D03*
Y537930D02*
D03*
Y532930D02*
D03*
Y527930D02*
D03*
Y522930D02*
D03*
D23*
X1361130Y658930D02*
D03*
X1366130D02*
D03*
X1371130D02*
D03*
X1376130D02*
D03*
X1381130D02*
D03*
X1386130D02*
D03*
X1391130D02*
D03*
X1396130D02*
D03*
X1401130D02*
D03*
X1406130D02*
D03*
X1411130D02*
D03*
X1416130D02*
D03*
X1421130D02*
D03*
X1426130D02*
D03*
X1431130D02*
D03*
X1436130D02*
D03*
X1441130D02*
D03*
X1446130D02*
D03*
X1451130D02*
D03*
X1456130D02*
D03*
X1461130D02*
D03*
X1466130D02*
D03*
X1471130D02*
D03*
X1476130D02*
D03*
X1481130D02*
D03*
Y506930D02*
D03*
X1476130D02*
D03*
X1471130D02*
D03*
X1466130D02*
D03*
X1461130D02*
D03*
X1456130D02*
D03*
X1451130D02*
D03*
X1446130D02*
D03*
X1441130D02*
D03*
X1436130D02*
D03*
X1431130D02*
D03*
X1426130D02*
D03*
X1421130D02*
D03*
X1416130D02*
D03*
X1411130D02*
D03*
X1406130D02*
D03*
X1401130D02*
D03*
X1396130D02*
D03*
X1391130D02*
D03*
X1386130D02*
D03*
X1381130D02*
D03*
X1376130D02*
D03*
X1371130D02*
D03*
X1366130D02*
D03*
X1361130D02*
D03*
D24*
X1197270Y729580D02*
D03*
Y723080D02*
D03*
Y716580D02*
D03*
Y710080D02*
D03*
Y703580D02*
D03*
Y697080D02*
D03*
Y690580D02*
D03*
Y684080D02*
D03*
Y677580D02*
D03*
Y671080D02*
D03*
Y664580D02*
D03*
Y658080D02*
D03*
X1256030D02*
D03*
Y664580D02*
D03*
Y671080D02*
D03*
Y677580D02*
D03*
Y684080D02*
D03*
Y690580D02*
D03*
Y697080D02*
D03*
Y703580D02*
D03*
Y710080D02*
D03*
Y716580D02*
D03*
Y723080D02*
D03*
Y729580D02*
D03*
D25*
X1207800Y603250D02*
D03*
X1179800D02*
D03*
D26*
X1033780Y691435D02*
D03*
X1063780D02*
D03*
D27*
X1596390Y557530D02*
D03*
Y652530D02*
D03*
D28*
X1263650Y533790D02*
D03*
X1250950D02*
D03*
X1238250D02*
D03*
X1225550D02*
D03*
X1212850D02*
D03*
X1200150D02*
D03*
X1187450D02*
D03*
X1174750D02*
D03*
Y478790D02*
D03*
X1187450D02*
D03*
X1200150D02*
D03*
X1212850D02*
D03*
X1225550D02*
D03*
X1238250D02*
D03*
X1250950D02*
D03*
X1263650D02*
D03*
D42*
X1050850Y762780D02*
D03*
D43*
X1009850Y742780D02*
D03*
D44*
X1034850D02*
D03*
D53*
X1431130Y667930D02*
Y671729D01*
Y658930D02*
Y667930D01*
Y671729D02*
X1433830Y674429D01*
Y675640D01*
X1051390Y742780D02*
X1079500Y770890D01*
X1034850Y742780D02*
X1051390D01*
X1283387Y780363D02*
X1290188Y787164D01*
X1273020Y762880D02*
X1306002Y795862D01*
X1127760Y777240D02*
X1136040Y768960D01*
X1341168Y788718D02*
X1346200Y793750D01*
X1341168Y733871D02*
Y788718D01*
Y733871D02*
X1372245Y702793D01*
X1420053D01*
X1451130Y671716D01*
Y658930D02*
Y671716D01*
X1346200Y732790D02*
X1372870Y706120D01*
X1346200Y732790D02*
Y784860D01*
X1372870Y706120D02*
X1422940D01*
X1461130Y667930D01*
Y658930D02*
Y667930D01*
X1009850Y742780D02*
X1045580Y778510D01*
X1084580D01*
X1290320Y770890D02*
X1302410D01*
X1290188Y787164D02*
Y802640D01*
X1302410Y770890D02*
X1311300Y762000D01*
X1240188Y802640D02*
X1256820Y786008D01*
Y760730D02*
Y786008D01*
X1336040Y717550D02*
X1358948Y694642D01*
X1330300Y723290D02*
X1336040Y717550D01*
X1330300Y723290D02*
Y762000D01*
X1324010Y729580D02*
X1330300Y723290D01*
X1182370Y779780D02*
X1205230Y802640D01*
X1002966Y815006D02*
X1163724D01*
X1176020Y802570D02*
X1176090Y802640D01*
X1176020Y774748D02*
Y802570D01*
X996950Y808990D02*
X1002966Y815006D01*
X1429662Y646398D02*
X1482593D01*
X1426130Y649930D02*
X1429662Y646398D01*
X1392318Y671462D02*
X1409700Y688844D01*
Y689610D01*
X1421216Y677844D02*
X1431130Y667930D01*
X1421216Y677844D02*
Y685210D01*
X1358948Y694642D02*
X1411784D01*
X1085612Y685848D02*
X1089950Y681510D01*
X1085612Y685848D02*
Y688974D01*
X1075690Y698896D02*
X1085612Y688974D01*
X1107440Y655120D02*
Y695067D01*
X1106547Y695960D02*
X1107440Y695067D01*
X1092200Y697710D02*
Y718820D01*
X1093950Y695960D02*
X1106547D01*
X1108710Y735330D02*
X1156970D01*
X1092200Y718820D02*
X1108710Y735330D01*
X1174750Y720101D02*
Y751840D01*
X1164358Y731347D02*
X1167130Y734119D01*
Y735330D01*
X1182124Y730496D02*
Y750169D01*
Y730496D02*
X1182370Y730250D01*
X1177368Y703251D02*
X1196941D01*
X1182370Y730250D02*
X1183040Y729580D01*
X1197270D01*
X1174420Y706198D02*
Y719772D01*
X1174750Y720101D01*
X1041400Y712470D02*
X1074797D01*
X1075690Y711577D01*
Y698896D02*
Y711577D01*
X1198562Y619988D02*
X1207800Y610750D01*
X1193436Y619988D02*
X1198562D01*
X1118870Y664210D02*
X1149214D01*
X1207800Y603250D02*
Y610750D01*
X1149214Y664210D02*
X1193436Y619988D01*
X1177520Y605530D02*
X1179800Y603250D01*
X1608760Y440360D02*
Y457896D01*
X1612922Y462058D01*
X1572412Y467208D02*
X1604010Y435610D01*
X1608760Y440360D01*
X995680Y435835D02*
X1010695Y450850D01*
X995680Y435610D02*
Y435835D01*
X1010695Y450850D02*
X1037248D01*
X1041255Y446843D01*
X1569720Y800100D02*
X1579880D01*
X1557960D02*
X1569720D01*
X1590040Y810260D02*
X1612490D01*
X1613760Y808990D01*
X1579880Y800100D02*
X1590040Y810260D01*
X1170940Y427990D02*
X1172210Y426720D01*
X1219200D01*
X1497130Y547930D02*
X1527250D01*
X1323340Y523085D02*
X1344975D01*
X1479550Y474980D02*
Y475860D01*
X1240731Y440690D02*
X1243271Y443230D01*
X1252220D01*
X1239520Y440690D02*
X1240731D01*
X1170940Y427990D02*
Y441960D01*
X1613760Y782748D02*
X1617998Y778510D01*
X1613760Y782748D02*
Y808990D01*
X1617998Y778510D02*
X1619250D01*
Y763270D02*
Y778510D01*
X1435307Y765190D02*
X1436163Y764333D01*
X1435307Y765190D02*
Y769318D01*
X1434244Y770381D02*
X1435307Y769318D01*
X1434244Y770381D02*
Y798816D01*
X1329901Y539159D02*
Y544115D01*
Y539159D02*
X1336130Y532930D01*
X1324154Y549862D02*
X1329901Y544115D01*
X1336130Y532930D02*
X1345130D01*
X1612922Y462058D02*
Y477742D01*
X1460430Y730250D02*
X1461100Y729580D01*
Y691550D02*
Y729580D01*
Y691550D02*
X1461770Y690880D01*
X1374662Y671462D02*
X1392318D01*
X1371130Y667930D02*
X1374662Y671462D01*
X1372456Y674256D02*
X1387996D01*
X1371130Y658930D02*
Y667930D01*
X1387996Y674256D02*
X1394460Y680720D01*
X1411784Y694642D02*
X1421216Y685210D01*
X1366130Y667930D02*
X1372456Y674256D01*
X1516380Y679450D02*
Y720632D01*
X1510430Y726582D02*
Y730250D01*
Y726582D02*
X1516380Y720632D01*
X1536310Y654840D02*
X1540348Y658878D01*
Y662604D02*
X1585430Y707686D01*
X1540348Y658878D02*
Y662604D01*
X1534160Y654840D02*
X1536310D01*
X1585430Y707686D02*
Y730250D01*
X1366130Y658930D02*
Y667930D01*
X1555750Y707425D02*
X1560430Y712105D01*
X1555750Y690880D02*
Y707425D01*
X1560430Y712105D02*
Y730250D01*
X1361130Y667930D02*
X1377730Y684530D01*
X1386840D01*
X1361130Y658930D02*
Y667930D01*
X1382960Y757720D02*
X1410430Y730250D01*
X1382960Y757720D02*
Y800100D01*
X1491035Y654840D02*
X1534160D01*
X1482593Y646398D02*
X1491035Y654840D01*
X1426130Y649930D02*
Y658930D01*
X1432960Y800100D02*
X1434244Y798816D01*
X1324610Y650664D02*
X1332344Y642930D01*
X1318794Y645878D02*
Y652794D01*
X1332344Y642930D02*
X1345130D01*
X1322526Y656526D02*
X1326694D01*
X1324610Y650664D02*
Y651494D01*
X1326694Y656526D02*
X1336758Y646462D01*
X1355652D01*
X1318794Y652794D02*
X1322526Y656526D01*
X1355652Y646462D02*
X1358510Y643604D01*
X1320800Y637540D02*
X1320995Y637735D01*
X1344935D01*
X1460166Y802306D02*
X1467532Y809672D01*
X1457960Y800100D02*
X1460166Y802306D01*
X1498388Y809672D02*
X1507960Y800100D01*
X1467532Y809672D02*
X1498388D01*
X1474470Y762000D02*
X1482960Y770490D01*
Y800100D01*
X1344935Y637735D02*
X1345130Y637930D01*
X1527810Y758190D02*
X1532960Y763340D01*
Y800100D01*
X1328831Y632930D02*
X1345130D01*
X1325821Y629920D02*
X1328831Y632930D01*
X1324610Y629920D02*
X1325821D01*
X1308100Y637540D02*
X1323340Y622300D01*
X1308100Y637540D02*
Y670560D01*
Y689610D02*
X1336040Y717550D01*
X1529688Y738404D02*
Y739802D01*
X1535430Y730250D02*
Y732662D01*
X1529688Y738404D02*
X1535430Y732662D01*
X1526540Y742950D02*
X1529688Y739802D01*
X1498600Y742950D02*
X1526540D01*
X1485900Y730250D02*
X1498600Y742950D01*
X1485430Y730250D02*
X1485900D01*
X1585430D02*
Y784390D01*
X1569720Y800100D02*
X1585430Y784390D01*
X1323340Y622300D02*
X1323688Y622648D01*
X1344848D01*
X1557960Y752780D02*
Y800100D01*
X1535430Y730250D02*
X1557960Y752780D01*
X1300090Y604830D02*
X1323030D01*
X1506130Y557930D02*
X1512766D01*
X1497130D02*
X1506130D01*
X1515672Y560836D02*
X1516884D01*
X1512766Y557930D02*
X1515672Y560836D01*
X1557020Y556260D02*
X1595120D01*
X1596390Y557530D01*
X1527250Y547930D02*
X1527330Y547850D01*
X1522730Y661760D02*
X1532010Y671040D01*
X1522730Y661670D02*
Y661760D01*
X1532010Y671040D02*
X1534160D01*
X1520912Y557482D02*
X1533180Y569750D01*
X1516360Y552930D02*
X1517698Y554268D01*
Y554534D02*
X1520646Y557482D01*
X1520912D01*
X1517698Y554268D02*
Y554534D01*
X1527330Y547850D02*
X1536700D01*
X1535430Y628650D02*
X1545590D01*
X1534160Y629920D02*
Y654840D01*
Y629920D02*
X1535430Y628650D01*
X1537680Y569750D02*
X1548979D01*
X1535430D02*
X1537680D01*
X1545590Y628650D02*
X1549400Y632460D01*
X1548979Y569750D02*
X1551999Y572770D01*
X1553210D01*
X1538850Y547850D02*
X1563401Y523299D01*
X1583914Y474875D02*
Y479069D01*
Y472876D02*
Y474875D01*
X1582652Y476138D02*
X1583914Y474875D01*
X1563401Y499582D02*
Y523299D01*
Y499582D02*
X1583914Y479069D01*
Y472876D02*
X1586890Y469900D01*
X1537680Y569750D02*
X1542018Y565412D01*
Y560712D02*
Y565412D01*
Y560712D02*
X1601470Y501260D01*
Y499110D02*
Y501260D01*
X1537680Y612450D02*
X1577760Y652530D01*
X1535430Y612450D02*
X1537680D01*
X1577760Y652530D02*
X1596390D01*
X1517726Y574526D02*
Y596996D01*
X1533180Y612450D02*
X1535430D01*
X1497130Y562930D02*
X1506130D01*
X1517726Y574526D01*
Y596996D02*
X1533180Y612450D01*
X1506130Y557930D02*
X1528842Y580642D01*
Y581612D01*
X1533180Y585950D01*
X1535430D01*
X1533180Y569750D02*
X1535430D01*
X1497130Y552930D02*
X1516360D01*
X1530512Y496318D02*
X1534550Y492280D01*
X1530512Y496318D02*
Y500044D01*
X1527718Y502838D02*
X1530512Y500044D01*
X1534550Y492280D02*
X1536700D01*
X1527718Y502838D02*
Y524818D01*
X1534550Y531650D01*
X1536700D01*
X1541649Y508480D02*
X1546599D01*
X1536700Y547850D02*
X1538850D01*
X1574800Y495300D02*
X1583610D01*
X1585270Y496960D01*
X1601470Y489194D02*
Y499110D01*
X1550841Y492280D02*
X1572412Y470709D01*
Y467208D02*
Y470709D01*
X1536700Y492280D02*
X1550841D01*
X1601470Y489194D02*
X1612922Y477742D01*
X1598674Y485706D02*
X1605890Y478490D01*
Y469900D02*
Y478490D01*
X1076763Y446843D02*
X1087120Y457200D01*
X1041255Y446843D02*
X1076763D01*
X1163724Y815006D02*
X1176090Y802640D01*
X1585270Y496960D02*
X1596524Y485706D01*
X1598674D01*
X1480146Y433744D02*
X1484836D01*
X1479550Y434340D02*
X1480146Y433744D01*
X1484836D02*
X1494040Y424540D01*
X1479550Y474980D02*
X1509662Y505092D01*
Y539398D01*
X1506130Y542930D02*
X1509662Y539398D01*
X1497130Y542930D02*
X1506130D01*
X1495310Y468270D02*
X1510540D01*
X1534550Y492280D01*
X1578941Y476138D02*
X1582652D01*
X1546599Y508480D02*
X1578941Y476138D01*
X1355825Y515620D02*
X1383135Y542930D01*
X1323340Y515620D02*
X1355825D01*
X1383135Y542930D02*
X1497130D01*
X1287732Y534622D02*
X1300121D01*
X1318308Y527002D02*
X1319506Y525804D01*
X1310688Y521156D02*
X1337446Y494398D01*
X1319565Y525804D02*
X1322129Y523240D01*
X1323340D01*
X1310688Y521156D02*
Y524054D01*
X1300121Y534622D02*
X1310688Y524054D01*
X1319506Y525804D02*
X1319565D01*
X1337446Y494398D02*
X1362598D01*
X1336022Y491604D02*
X1364804D01*
X1305608Y522018D02*
X1336022Y491604D01*
X1344975Y523085D02*
X1345130Y522930D01*
X1297940Y604830D02*
X1300090D01*
X1319450Y585470D01*
X1327737D01*
X1332620Y527930D02*
X1345130D01*
X1323340Y537210D02*
X1332620Y527930D01*
X1318308Y541068D02*
X1322070Y544830D01*
X1318308Y527002D02*
Y541068D01*
X1256030Y729580D02*
X1324010D01*
X1305560Y697230D02*
Y706070D01*
X1317040Y717550D01*
X1324610Y681455D02*
X1359667Y646398D01*
X1363618D01*
X1397086Y612930D01*
X1497130D01*
X1324610Y681455D02*
Y693420D01*
X1358510Y643604D02*
X1362461D01*
X1398135Y607930D01*
X1286510Y667970D02*
X1289100Y670560D01*
X1286510Y648970D02*
Y667970D01*
X1398135Y607930D02*
X1497130D01*
X1411130Y459980D02*
Y506930D01*
X1418990Y452120D02*
X1443990D01*
X1391920Y483870D02*
X1392065D01*
X1406130Y497935D02*
Y506930D01*
X1392065Y483870D02*
X1406130Y497935D01*
X1344848Y622648D02*
X1345130Y622930D01*
X1319986Y549862D02*
X1324154D01*
X1286510Y548640D02*
X1318764D01*
X1319986Y549862D01*
X1298730Y560070D02*
X1313180D01*
X1297940Y560860D02*
X1298730Y560070D01*
X1280652Y561922D02*
X1295790Y577060D01*
X1323030Y604830D02*
X1336130Y617930D01*
X1345130D01*
X1238250Y533790D02*
X1239520Y535060D01*
Y549910D01*
X1364804Y491604D02*
X1371130Y497930D01*
Y506930D01*
X1280652Y537342D02*
Y561922D01*
X1225550Y482240D02*
X1280652Y537342D01*
X1263650Y533790D02*
Y554220D01*
X1290920Y529590D02*
X1368390Y452120D01*
X1282700Y529590D02*
X1287732Y534622D01*
X1290320Y529590D02*
X1290920D01*
X1279746Y516364D02*
Y519844D01*
X1278890Y520700D02*
X1279746Y519844D01*
Y516364D02*
X1343990Y452120D01*
X1057850Y605530D02*
X1107440Y655120D01*
X1031818Y623378D02*
X1089950Y681510D01*
X1092200Y697710D02*
X1093950Y695960D01*
X1254760Y555049D02*
Y556260D01*
X1250950Y533790D02*
X1252513Y535353D01*
Y552802D01*
X1254760Y555049D01*
X1362598Y494398D02*
X1366130Y497930D01*
Y506930D01*
X1271750Y575310D02*
X1285240D01*
X1271270Y575790D02*
X1271750Y575310D01*
X1263650Y554220D02*
X1269020Y559590D01*
X1296190Y606580D02*
X1297940Y604830D01*
X1268730Y606580D02*
X1296190D01*
X1264682Y563928D02*
Y567054D01*
Y563928D02*
X1269020Y559590D01*
X1254760Y576976D02*
X1264682Y567054D01*
X1295790Y577060D02*
X1297940D01*
X1287541Y452120D02*
X1296670D01*
X1286510Y462280D02*
X1296670Y452120D01*
X1318990D01*
X1393990D02*
X1418990D01*
X1411130Y459980D02*
X1418990Y452120D01*
X1443990D02*
X1479160D01*
X1495310Y468270D01*
X1207718Y512508D02*
X1225550Y530340D01*
Y533790D01*
X1203480Y443230D02*
Y470050D01*
X1207718Y474288D01*
Y512508D01*
X1215390Y560129D02*
Y561340D01*
X1212850Y533790D02*
Y557589D01*
X1215390Y560129D01*
X1368390Y452120D02*
X1368990D01*
X1200150Y547370D02*
X1206500Y553720D01*
X1200150Y533790D02*
Y547370D01*
X1252220Y445380D02*
Y463910D01*
Y445380D02*
X1256258Y449418D01*
X1259984D01*
X1262778Y452212D01*
X1252220Y443230D02*
Y445380D01*
X1262778Y452212D02*
X1287449D01*
X1287541Y452120D01*
X1252220Y463910D02*
X1263650Y475340D01*
Y478790D01*
X1308100Y670560D02*
Y689610D01*
X1256820Y730370D02*
Y760730D01*
X1184851Y721360D02*
X1186571Y723080D01*
X1197270D01*
X1183640Y721360D02*
X1184851D01*
X1187750Y716580D02*
X1197270D01*
X1179453Y708282D02*
X1187750Y716580D01*
X1196148Y659202D02*
X1197270Y658080D01*
X1188648Y659202D02*
X1196148D01*
X1184910Y662940D02*
X1188648Y659202D01*
X1265054Y774834D02*
Y802506D01*
X1265188Y802640D01*
X1264920Y774700D02*
X1265054Y774834D01*
X1225073Y733583D02*
X1245870Y754380D01*
X1225073Y718885D02*
Y733583D01*
X1205487Y699298D02*
X1225073Y718885D01*
X1204613Y699298D02*
X1205487D01*
X1202395Y697080D02*
X1204613Y699298D01*
X1197270Y697080D02*
X1202395D01*
X1215390Y740410D02*
X1221080Y746100D01*
Y759460D01*
X1202080Y737269D02*
Y759460D01*
Y737269D02*
X1206677Y732672D01*
Y713488D02*
Y732672D01*
X1205487Y712298D02*
X1206677Y713488D01*
X1204613Y712298D02*
X1205487D01*
X1202395Y710080D02*
X1204613Y712298D01*
X1197270Y710080D02*
X1202395D01*
Y690580D02*
X1204613Y692798D01*
X1205487D01*
X1240790Y728101D01*
X1197270Y690580D02*
X1202395D01*
X1240790Y728101D02*
Y741680D01*
X1273020Y751301D02*
X1275080Y749241D01*
X1273020Y751301D02*
Y760730D01*
X1275080Y748030D02*
Y749241D01*
X1289100Y670560D02*
Y703741D01*
X1272956Y711557D02*
X1274167D01*
X1256030Y710080D02*
X1271479D01*
X1272956Y711557D01*
X1276252Y716590D02*
X1289100Y703741D01*
X1256040Y716590D02*
X1276252D01*
X1256030Y716580D02*
X1256040Y716590D01*
X1256030Y723080D02*
X1283839D01*
X1270480Y621030D02*
X1297940D01*
X1268730Y622780D02*
X1270480Y621030D01*
X1297940D02*
Y660400D01*
X1308100Y670560D01*
X1264692Y602542D02*
X1268730Y606580D01*
X1257862Y602542D02*
X1264692D01*
X1254760Y599440D02*
X1257862Y602542D01*
X1254760Y576976D02*
Y599440D01*
X1269020Y559590D02*
X1271270D01*
X1225550Y478790D02*
Y482240D01*
X1256030Y729580D02*
X1256820Y730370D01*
X1283839Y723080D02*
X1289368Y717550D01*
X1317040D01*
X1181879Y750414D02*
X1182124Y750169D01*
X1163320Y783590D02*
X1170533Y776377D01*
X1182370Y773982D02*
Y779780D01*
X1170533Y773119D02*
Y776377D01*
Y773119D02*
X1173936Y769716D01*
X1178104D02*
X1182370Y773982D01*
X1173936Y769716D02*
X1178104D01*
X1197270Y723080D02*
Y729580D01*
X1169270Y759460D02*
X1202080D01*
X1164358Y725598D02*
Y731347D01*
X1162902Y678018D02*
X1181964Y697080D01*
X1174420Y706198D02*
X1177368Y703251D01*
X1196941D02*
X1197270Y703580D01*
X1181964Y697080D02*
X1197270D01*
X1126090Y802640D02*
X1169270Y759460D01*
X1205230Y802640D02*
X1240188D01*
X1215080Y658080D02*
X1266580Y606580D01*
X1197270Y658080D02*
X1215080D01*
X1266580Y606580D02*
X1268730D01*
X1160120Y721360D02*
X1164358Y725598D01*
X1221080Y759460D02*
X1255550D01*
X1256820Y760730D01*
X1149764Y708246D02*
Y710716D01*
X1141120Y719360D02*
Y721360D01*
Y719360D02*
X1149764Y710716D01*
Y708246D02*
X1150620Y707390D01*
X1145092Y678018D02*
X1162902D01*
X1137310Y685800D02*
X1145092Y678018D01*
X1156310Y685800D02*
X1160120Y689610D01*
Y721360D01*
X1223718Y432362D02*
Y439192D01*
X1219680Y443230D02*
X1223718Y439192D01*
Y432362D02*
X1229360Y426720D01*
X1263650D01*
X1268420Y431490D01*
Y443230D01*
X1215642Y437042D02*
X1219680Y441080D01*
X1211916Y437042D02*
X1215642D01*
X1209122Y434248D02*
X1211916Y437042D01*
X1197838Y434248D02*
X1209122D01*
X1174750Y457336D02*
X1197838Y434248D01*
X1174750Y457336D02*
Y475340D01*
X1219680Y441080D02*
Y443230D01*
X1092200Y671830D02*
Y681510D01*
Y671830D02*
X1098550Y665480D01*
X1207800Y595750D02*
Y603250D01*
Y595750D02*
X1217038Y586512D01*
X1033780Y691435D02*
Y704850D01*
X1041400Y712470D01*
X1089950Y681510D02*
X1092200D01*
X1060450Y666750D02*
Y688105D01*
X1063780Y691435D01*
X1113155Y528955D02*
X1113790Y529590D01*
X1112520Y457200D02*
X1113155Y457835D01*
Y528955D01*
X1146253Y446843D02*
X1174750Y475340D01*
X1087120Y457200D02*
X1097477Y446843D01*
X1146253D01*
X1031818Y487102D02*
X1061720Y457200D01*
X1031818Y487102D02*
Y623378D01*
X1057850Y595530D02*
Y605530D01*
Y595530D02*
X1085850Y567530D01*
Y557530D02*
Y567530D01*
Y557530D02*
X1086485Y556895D01*
Y457835D02*
X1087120Y457200D01*
X1086485Y457835D02*
Y556895D01*
X1101090Y802640D02*
X1103684Y805234D01*
Y811373D02*
X1104523Y812212D01*
X1155055D01*
X1103684Y805234D02*
Y811373D01*
X1155055Y812212D02*
X1163320Y803947D01*
Y783590D02*
Y803947D01*
X1151090Y801331D02*
X1158240Y794181D01*
Y779780D02*
Y794181D01*
X1151090Y801331D02*
Y802640D01*
X1123184Y779780D02*
X1125676Y782272D01*
X1129844D01*
X1132792Y777898D02*
X1155040Y755650D01*
X1132792Y777898D02*
Y779324D01*
X1136040Y755650D02*
Y768960D01*
X1129844Y782272D02*
X1132792Y779324D01*
X1103630Y779780D02*
X1123184D01*
X1101090Y782320D02*
Y802640D01*
Y782320D02*
X1103630Y779780D01*
X1306002Y795862D02*
X1308409D01*
X1315188Y802640D01*
X1273020Y760730D02*
Y762880D01*
X1302540Y815288D02*
Y815820D01*
Y815288D02*
X1315188Y802640D01*
X1296670Y821690D02*
X1302540Y815820D01*
X1195140Y821690D02*
X1296670D01*
X1176090Y802640D02*
X1195140Y821690D01*
X1460166Y809926D02*
X1470660Y820420D01*
X1460166Y802306D02*
Y809926D01*
X1470660Y820420D02*
X1537640D01*
X1557960Y800100D01*
X1382653Y807720D02*
X1388110D01*
X1382653Y800407D02*
Y807720D01*
Y800407D02*
X1382960Y800100D01*
X1388110Y807720D02*
X1398270Y817880D01*
X1440180D01*
X1457960Y800100D01*
X1315188Y802640D02*
X1380420D01*
D54*
X1115850Y605530D02*
X1177520D01*
D55*
X1407960Y767550D02*
X1435430Y740080D01*
Y730250D02*
Y740080D01*
X1407960Y767550D02*
Y800100D01*
D56*
X1443990Y452120D02*
D03*
X1418990D02*
D03*
X1343990D02*
D03*
X1393990D02*
D03*
X1368990D02*
D03*
X1460430Y730250D02*
D03*
X1485430D02*
D03*
X1435430D02*
D03*
X1510430D02*
D03*
X1535430D02*
D03*
X1560430D02*
D03*
X1585430D02*
D03*
X1290188Y802640D02*
D03*
X1265188D02*
D03*
X1240188D02*
D03*
X1432960Y800100D02*
D03*
X1457960D02*
D03*
X1407960D02*
D03*
X1482960D02*
D03*
X1507960D02*
D03*
X1532960D02*
D03*
X1557960D02*
D03*
X1151090Y802640D02*
D03*
X1126090D02*
D03*
X1101090D02*
D03*
D57*
X1318990Y452120D02*
D03*
X1410430Y730250D02*
D03*
X1315188Y802640D02*
D03*
X1382960Y800100D02*
D03*
X1176090Y802640D02*
D03*
D58*
X1559040Y424540D02*
D03*
X1494040D02*
D03*
X1559040Y469540D02*
D03*
X1494040D02*
D03*
D59*
X1115850Y605530D02*
D03*
X1057850D02*
D03*
X1085850Y557530D02*
D03*
D60*
X1061720Y457200D02*
D03*
D61*
X1087120D02*
D03*
X1112520D02*
D03*
D62*
X1433830Y675640D02*
D03*
X1079500Y770890D02*
D03*
X1283387Y780363D02*
D03*
X1127760Y777240D02*
D03*
X1346200Y793750D02*
D03*
X1084580Y778510D02*
D03*
X1346200Y784860D02*
D03*
X1290320Y770890D02*
D03*
X1176020Y774748D02*
D03*
X1409700Y689610D02*
D03*
X1156970Y735330D02*
D03*
X1167130D02*
D03*
X1182370Y730250D02*
D03*
X1219200Y426720D02*
D03*
X1239520Y440690D02*
D03*
X1436163Y764333D02*
D03*
X1461770Y690880D02*
D03*
X1516380Y679450D02*
D03*
X1394460Y680720D02*
D03*
X1555750Y690880D02*
D03*
X1386840Y684530D02*
D03*
X1324610Y651494D02*
D03*
X1318794Y645878D02*
D03*
X1320800Y637540D02*
D03*
X1474470Y762000D02*
D03*
X1527810Y758190D02*
D03*
X1324610Y629920D02*
D03*
X1323340Y622300D02*
D03*
X1516884Y560836D02*
D03*
X1522730Y551228D02*
D03*
X1557020Y556260D02*
D03*
X1522730Y661670D02*
D03*
X1549400Y632460D02*
D03*
X1553210Y572770D02*
D03*
X1574800Y495300D02*
D03*
X1479550Y434340D02*
D03*
Y474980D02*
D03*
X1323340Y515620D02*
D03*
Y523240D02*
D03*
X1327737Y585470D02*
D03*
X1323340Y537210D02*
D03*
X1305560Y697230D02*
D03*
X1324610Y693420D02*
D03*
X1286510Y648970D02*
D03*
X1391920Y483870D02*
D03*
X1322070Y544830D02*
D03*
X1313180Y560070D02*
D03*
X1239520Y549910D02*
D03*
X1305608Y522018D02*
D03*
X1286510Y548640D02*
D03*
X1290320Y529590D02*
D03*
X1282700D02*
D03*
X1278890Y520700D02*
D03*
X1254760Y556260D02*
D03*
X1285240Y575310D02*
D03*
X1286510Y462280D02*
D03*
X1215390Y561340D02*
D03*
X1206500Y553720D02*
D03*
X1183640Y721360D02*
D03*
X1184910Y662940D02*
D03*
X1264920Y774700D02*
D03*
X1245870Y754380D02*
D03*
X1240790Y741680D02*
D03*
X1275080Y748030D02*
D03*
X1274167Y711557D02*
D03*
X1181879Y750414D02*
D03*
X1179453Y708282D02*
D03*
X1174750Y751840D02*
D03*
X1215390Y740410D02*
D03*
X1150620Y707390D02*
D03*
X1098550Y665480D02*
D03*
X1118870Y664210D02*
D03*
X1060450Y666750D02*
D03*
X1113790Y529590D02*
D03*
X1158240Y779780D02*
D03*
D63*
X1604010Y435610D02*
D03*
X995680D02*
D03*
X996950Y808990D02*
D03*
X1613760D02*
D03*
M02*
