G04*
G04 #@! TF.GenerationSoftware,Altium Limited,Altium Designer,24.0.1 (36)*
G04*
G04 Layer_Color=8388736*
%FSLAX44Y44*%
%MOMM*%
G71*
G04*
G04 #@! TF.SameCoordinates,AE154294-96CE-490B-A9AE-858F9377290F*
G04*
G04*
G04 #@! TF.FilePolarity,Negative*
G04*
G01*
G75*
%ADD29R,1.3000X1.3000*%
%ADD30R,1.5400X1.1100*%
%ADD31R,1.5500X1.1500*%
%ADD32R,1.1100X1.5400*%
%ADD33R,1.1500X1.5500*%
%ADD34R,1.6200X1.1700*%
%ADD35O,2.2500X0.4500*%
%ADD36O,0.4500X2.2500*%
%ADD37R,1.6250X0.6000*%
%ADD38R,2.1500X3.6500*%
%ADD39R,1.3000X1.9500*%
%ADD40R,2.1500X5.6500*%
G04:AMPARAMS|DCode=41|XSize=1.46mm|YSize=0.77mm|CornerRadius=0.1525mm|HoleSize=0mm|Usage=FLASHONLY|Rotation=270.000|XOffset=0mm|YOffset=0mm|HoleType=Round|Shape=RoundedRectangle|*
%AMROUNDEDRECTD41*
21,1,1.4600,0.4650,0,0,270.0*
21,1,1.1550,0.7700,0,0,270.0*
1,1,0.3050,-0.2325,-0.5775*
1,1,0.3050,-0.2325,0.5775*
1,1,0.3050,0.2325,0.5775*
1,1,0.3050,0.2325,-0.5775*
%
%ADD41ROUNDEDRECTD41*%
%ADD42C,1.1000*%
%ADD43C,1.5500*%
%ADD44R,1.5500X1.5500*%
%ADD45C,1.6580*%
%ADD46R,1.6580X1.6580*%
%ADD47C,1.8000*%
%ADD48C,4.9500*%
%ADD49R,1.8150X1.8150*%
%ADD50C,1.8150*%
%ADD51C,0.7500*%
%ADD52C,4.1500*%
D29*
X1317040Y717550D02*
D03*
X1336040D02*
D03*
X1289100Y670560D02*
D03*
X1308100D02*
D03*
X1311300Y762000D02*
D03*
X1330300D02*
D03*
X1202080Y759460D02*
D03*
X1221080D02*
D03*
X1137310Y685800D02*
D03*
X1156310D02*
D03*
X1136040Y755650D02*
D03*
X1155040D02*
D03*
D30*
X1170940Y427990D02*
D03*
Y441960D02*
D03*
X1619250Y763270D02*
D03*
X1536700Y531650D02*
D03*
Y547850D02*
D03*
Y492280D02*
D03*
Y508480D02*
D03*
X1534160Y654840D02*
D03*
Y671040D02*
D03*
X1297940Y604830D02*
D03*
Y621030D02*
D03*
X1268730Y606580D02*
D03*
Y622780D02*
D03*
X1297940Y560860D02*
D03*
Y577060D02*
D03*
D31*
X1619250Y778510D02*
D03*
D32*
X1601470Y499110D02*
D03*
X1585270D02*
D03*
X1273020Y760730D02*
D03*
X1256820D02*
D03*
X1268420Y443230D02*
D03*
X1252220D02*
D03*
X1219680D02*
D03*
X1203480D02*
D03*
D33*
X1605890Y469900D02*
D03*
X1586890D02*
D03*
X1141120Y721360D02*
D03*
X1160120D02*
D03*
D34*
X1535430Y585950D02*
D03*
Y569750D02*
D03*
Y612450D02*
D03*
Y628650D02*
D03*
X1271270Y559590D02*
D03*
Y575790D02*
D03*
X1092200Y681510D02*
D03*
Y697710D02*
D03*
D35*
X1345130Y522930D02*
D03*
Y527930D02*
D03*
Y532930D02*
D03*
Y537930D02*
D03*
Y542930D02*
D03*
Y547930D02*
D03*
Y552930D02*
D03*
Y557930D02*
D03*
Y562930D02*
D03*
Y567930D02*
D03*
Y572930D02*
D03*
Y577930D02*
D03*
Y582930D02*
D03*
Y587930D02*
D03*
Y592930D02*
D03*
Y597930D02*
D03*
Y602930D02*
D03*
Y607930D02*
D03*
Y612930D02*
D03*
Y617930D02*
D03*
Y622930D02*
D03*
Y627930D02*
D03*
Y632930D02*
D03*
Y637930D02*
D03*
Y642930D02*
D03*
X1497130D02*
D03*
Y637930D02*
D03*
Y632930D02*
D03*
Y627930D02*
D03*
Y622930D02*
D03*
Y617930D02*
D03*
Y612930D02*
D03*
Y607930D02*
D03*
Y602930D02*
D03*
Y597930D02*
D03*
Y592930D02*
D03*
Y587930D02*
D03*
Y582930D02*
D03*
Y577930D02*
D03*
Y572930D02*
D03*
Y567930D02*
D03*
Y562930D02*
D03*
Y557930D02*
D03*
Y552930D02*
D03*
Y547930D02*
D03*
Y542930D02*
D03*
Y537930D02*
D03*
Y532930D02*
D03*
Y527930D02*
D03*
Y522930D02*
D03*
D36*
X1361130Y658930D02*
D03*
X1366130D02*
D03*
X1371130D02*
D03*
X1376130D02*
D03*
X1381130D02*
D03*
X1386130D02*
D03*
X1391130D02*
D03*
X1396130D02*
D03*
X1401130D02*
D03*
X1406130D02*
D03*
X1411130D02*
D03*
X1416130D02*
D03*
X1421130D02*
D03*
X1426130D02*
D03*
X1431130D02*
D03*
X1436130D02*
D03*
X1441130D02*
D03*
X1446130D02*
D03*
X1451130D02*
D03*
X1456130D02*
D03*
X1461130D02*
D03*
X1466130D02*
D03*
X1471130D02*
D03*
X1476130D02*
D03*
X1481130D02*
D03*
Y506930D02*
D03*
X1476130D02*
D03*
X1471130D02*
D03*
X1466130D02*
D03*
X1461130D02*
D03*
X1456130D02*
D03*
X1451130D02*
D03*
X1446130D02*
D03*
X1441130D02*
D03*
X1436130D02*
D03*
X1431130D02*
D03*
X1426130D02*
D03*
X1421130D02*
D03*
X1416130D02*
D03*
X1411130D02*
D03*
X1406130D02*
D03*
X1401130D02*
D03*
X1396130D02*
D03*
X1391130D02*
D03*
X1386130D02*
D03*
X1381130D02*
D03*
X1376130D02*
D03*
X1371130D02*
D03*
X1366130D02*
D03*
X1361130D02*
D03*
D37*
X1197270Y729580D02*
D03*
Y723080D02*
D03*
Y716580D02*
D03*
Y710080D02*
D03*
Y703580D02*
D03*
Y697080D02*
D03*
Y690580D02*
D03*
Y684080D02*
D03*
Y677580D02*
D03*
Y671080D02*
D03*
Y664580D02*
D03*
Y658080D02*
D03*
X1256030D02*
D03*
Y664580D02*
D03*
Y671080D02*
D03*
Y677580D02*
D03*
Y684080D02*
D03*
Y690580D02*
D03*
Y697080D02*
D03*
Y703580D02*
D03*
Y710080D02*
D03*
Y716580D02*
D03*
Y723080D02*
D03*
Y729580D02*
D03*
D38*
X1207800Y603250D02*
D03*
X1179800D02*
D03*
D39*
X1033780Y691435D02*
D03*
X1063780D02*
D03*
D40*
X1596390Y557530D02*
D03*
Y652530D02*
D03*
D41*
X1263650Y533790D02*
D03*
X1250950D02*
D03*
X1238250D02*
D03*
X1225550D02*
D03*
X1212850D02*
D03*
X1200150D02*
D03*
X1187450D02*
D03*
X1174750D02*
D03*
Y478790D02*
D03*
X1187450D02*
D03*
X1200150D02*
D03*
X1212850D02*
D03*
X1225550D02*
D03*
X1238250D02*
D03*
X1250950D02*
D03*
X1263650D02*
D03*
D42*
X1050850Y762780D02*
D03*
D43*
X1009850Y742780D02*
D03*
D44*
X1034850D02*
D03*
D45*
X1443990Y452120D02*
D03*
X1418990D02*
D03*
X1343990D02*
D03*
X1393990D02*
D03*
X1368990D02*
D03*
X1460430Y730250D02*
D03*
X1485430D02*
D03*
X1435430D02*
D03*
X1510430D02*
D03*
X1535430D02*
D03*
X1560430D02*
D03*
X1585430D02*
D03*
X1290188Y802640D02*
D03*
X1265188D02*
D03*
X1240188D02*
D03*
X1432960Y800100D02*
D03*
X1457960D02*
D03*
X1407960D02*
D03*
X1482960D02*
D03*
X1507960D02*
D03*
X1532960D02*
D03*
X1557960D02*
D03*
X1151090Y802640D02*
D03*
X1126090D02*
D03*
X1101090D02*
D03*
D46*
X1318990Y452120D02*
D03*
X1410430Y730250D02*
D03*
X1315188Y802640D02*
D03*
X1382960Y800100D02*
D03*
X1176090Y802640D02*
D03*
D47*
X1559040Y424540D02*
D03*
X1494040D02*
D03*
X1559040Y469540D02*
D03*
X1494040D02*
D03*
D48*
X1115850Y605530D02*
D03*
X1057850D02*
D03*
X1085850Y557530D02*
D03*
D49*
X1061720Y457200D02*
D03*
D50*
X1087120D02*
D03*
X1112520D02*
D03*
D51*
X1433830Y675640D02*
D03*
X1079500Y770890D02*
D03*
X1283387Y780363D02*
D03*
X1127760Y777240D02*
D03*
X1346200Y793750D02*
D03*
X1084580Y778510D02*
D03*
X1346200Y784860D02*
D03*
X1290320Y770890D02*
D03*
X1176020Y774748D02*
D03*
X1409700Y689610D02*
D03*
X1156970Y735330D02*
D03*
X1167130D02*
D03*
X1182370Y730250D02*
D03*
X1219200Y426720D02*
D03*
X1239520Y440690D02*
D03*
X1436163Y764333D02*
D03*
X1461770Y690880D02*
D03*
X1516380Y679450D02*
D03*
X1394460Y680720D02*
D03*
X1555750Y690880D02*
D03*
X1386840Y684530D02*
D03*
X1324610Y651494D02*
D03*
X1318794Y645878D02*
D03*
X1320800Y637540D02*
D03*
X1474470Y762000D02*
D03*
X1527810Y758190D02*
D03*
X1324610Y629920D02*
D03*
X1323340Y622300D02*
D03*
X1516884Y560836D02*
D03*
X1522730Y551228D02*
D03*
X1557020Y556260D02*
D03*
X1522730Y661670D02*
D03*
X1549400Y632460D02*
D03*
X1553210Y572770D02*
D03*
X1574800Y495300D02*
D03*
X1479550Y434340D02*
D03*
Y474980D02*
D03*
X1323340Y515620D02*
D03*
Y523240D02*
D03*
X1327737Y585470D02*
D03*
X1323340Y537210D02*
D03*
X1305560Y697230D02*
D03*
X1324610Y693420D02*
D03*
X1286510Y648970D02*
D03*
X1391920Y483870D02*
D03*
X1322070Y544830D02*
D03*
X1313180Y560070D02*
D03*
X1239520Y549910D02*
D03*
X1305608Y522018D02*
D03*
X1286510Y548640D02*
D03*
X1290320Y529590D02*
D03*
X1282700D02*
D03*
X1278890Y520700D02*
D03*
X1254760Y556260D02*
D03*
X1285240Y575310D02*
D03*
X1286510Y462280D02*
D03*
X1215390Y561340D02*
D03*
X1206500Y553720D02*
D03*
X1183640Y721360D02*
D03*
X1184910Y662940D02*
D03*
X1264920Y774700D02*
D03*
X1245870Y754380D02*
D03*
X1240790Y741680D02*
D03*
X1275080Y748030D02*
D03*
X1274167Y711557D02*
D03*
X1181879Y750414D02*
D03*
X1179453Y708282D02*
D03*
X1174750Y751840D02*
D03*
X1215390Y740410D02*
D03*
X1150620Y707390D02*
D03*
X1098550Y665480D02*
D03*
X1118870Y664210D02*
D03*
X1060450Y666750D02*
D03*
X1113790Y529590D02*
D03*
X1158240Y779780D02*
D03*
D52*
X1604010Y435610D02*
D03*
X995680D02*
D03*
X996950Y808990D02*
D03*
X1613760D02*
D03*
M02*
