G04*
G04 #@! TF.GenerationSoftware,Altium Limited,Altium Designer,24.0.1 (36)*
G04*
G04 Layer_Color=16711935*
%FSLAX44Y44*%
%MOMM*%
G71*
G04*
G04 #@! TF.SameCoordinates,AE154294-96CE-490B-A9AE-858F9377290F*
G04*
G04*
G04 #@! TF.FilePolarity,Positive*
G04*
G01*
G75*
%ADD11C,0.2000*%
G36*
X1029330Y754557D02*
X1029395D01*
X1029469Y754548D01*
X1029645Y754511D01*
X1029839Y754465D01*
X1030042Y754391D01*
X1030246Y754280D01*
X1030347Y754215D01*
X1030440Y754141D01*
X1030449Y754132D01*
X1030458Y754123D01*
X1030486Y754095D01*
X1030514Y754067D01*
X1030560Y754021D01*
X1030597Y753966D01*
X1030699Y753836D01*
X1030800Y753670D01*
X1030893Y753466D01*
X1030976Y753235D01*
X1031031Y752976D01*
X1030246Y752912D01*
Y752921D01*
X1030236Y752930D01*
X1030227Y752986D01*
X1030199Y753069D01*
X1030162Y753170D01*
X1030125Y753281D01*
X1030070Y753392D01*
X1030005Y753494D01*
X1029940Y753577D01*
X1029922Y753596D01*
X1029885Y753633D01*
X1029820Y753688D01*
X1029728Y753753D01*
X1029608Y753808D01*
X1029478Y753864D01*
X1029321Y753901D01*
X1029155Y753919D01*
X1029090D01*
X1029016Y753910D01*
X1028933Y753892D01*
X1028822Y753864D01*
X1028711Y753827D01*
X1028600Y753781D01*
X1028489Y753707D01*
X1028471Y753697D01*
X1028424Y753660D01*
X1028360Y753596D01*
X1028276Y753503D01*
X1028184Y753392D01*
X1028082Y753263D01*
X1027990Y753096D01*
X1027897Y752912D01*
Y752902D01*
X1027888Y752884D01*
X1027879Y752856D01*
X1027860Y752819D01*
X1027851Y752764D01*
X1027832Y752699D01*
X1027814Y752625D01*
X1027795Y752533D01*
X1027768Y752431D01*
X1027749Y752320D01*
X1027731Y752200D01*
X1027722Y752070D01*
X1027703Y751922D01*
X1027694Y751774D01*
X1027685Y751608D01*
Y751441D01*
X1027694Y751451D01*
X1027731Y751506D01*
X1027795Y751580D01*
X1027879Y751673D01*
X1027971Y751784D01*
X1028091Y751885D01*
X1028221Y751987D01*
X1028369Y752079D01*
X1028378D01*
X1028387Y752089D01*
X1028443Y752116D01*
X1028526Y752144D01*
X1028637Y752190D01*
X1028766Y752227D01*
X1028914Y752255D01*
X1029071Y752283D01*
X1029238Y752292D01*
X1029312D01*
X1029367Y752283D01*
X1029441Y752274D01*
X1029515Y752264D01*
X1029608Y752246D01*
X1029700Y752218D01*
X1029913Y752153D01*
X1030024Y752107D01*
X1030135Y752042D01*
X1030246Y751978D01*
X1030366Y751904D01*
X1030477Y751811D01*
X1030579Y751710D01*
X1030588Y751700D01*
X1030606Y751682D01*
X1030634Y751654D01*
X1030662Y751608D01*
X1030708Y751543D01*
X1030754Y751479D01*
X1030800Y751395D01*
X1030856Y751303D01*
X1030911Y751201D01*
X1030957Y751090D01*
X1031004Y750961D01*
X1031050Y750831D01*
X1031078Y750693D01*
X1031105Y750535D01*
X1031124Y750378D01*
X1031133Y750212D01*
Y750203D01*
Y750184D01*
Y750156D01*
Y750110D01*
X1031124Y750055D01*
Y749999D01*
X1031096Y749851D01*
X1031068Y749676D01*
X1031022Y749491D01*
X1030957Y749287D01*
X1030865Y749093D01*
Y749084D01*
X1030856Y749075D01*
X1030837Y749047D01*
X1030819Y749010D01*
X1030763Y748917D01*
X1030680Y748797D01*
X1030579Y748668D01*
X1030458Y748538D01*
X1030310Y748409D01*
X1030153Y748298D01*
X1030144D01*
X1030135Y748289D01*
X1030107Y748270D01*
X1030070Y748261D01*
X1029977Y748215D01*
X1029857Y748169D01*
X1029700Y748113D01*
X1029525Y748076D01*
X1029330Y748039D01*
X1029118Y748030D01*
X1029071D01*
X1029025Y748039D01*
X1028951D01*
X1028868Y748048D01*
X1028776Y748067D01*
X1028665Y748095D01*
X1028554Y748122D01*
X1028424Y748159D01*
X1028295Y748205D01*
X1028165Y748261D01*
X1028027Y748335D01*
X1027897Y748418D01*
X1027768Y748511D01*
X1027638Y748622D01*
X1027518Y748751D01*
X1027509Y748760D01*
X1027490Y748788D01*
X1027463Y748825D01*
X1027426Y748890D01*
X1027370Y748973D01*
X1027324Y749065D01*
X1027269Y749186D01*
X1027213Y749315D01*
X1027148Y749472D01*
X1027093Y749648D01*
X1027047Y749842D01*
X1027000Y750055D01*
X1026954Y750295D01*
X1026926Y750554D01*
X1026908Y750831D01*
X1026899Y751127D01*
Y751136D01*
Y751146D01*
Y751173D01*
Y751210D01*
X1026908Y751303D01*
Y751432D01*
X1026917Y751580D01*
X1026936Y751756D01*
X1026954Y751950D01*
X1026982Y752163D01*
X1027019Y752375D01*
X1027065Y752606D01*
X1027121Y752828D01*
X1027185Y753050D01*
X1027269Y753263D01*
X1027361Y753466D01*
X1027463Y753660D01*
X1027583Y753827D01*
X1027592Y753836D01*
X1027611Y753855D01*
X1027648Y753892D01*
X1027694Y753947D01*
X1027749Y754003D01*
X1027823Y754058D01*
X1027916Y754132D01*
X1028008Y754197D01*
X1028119Y754261D01*
X1028239Y754335D01*
X1028378Y754391D01*
X1028517Y754456D01*
X1028674Y754502D01*
X1028840Y754539D01*
X1029016Y754557D01*
X1029201Y754566D01*
X1029275D01*
X1029330Y754557D01*
D02*
G37*
G36*
X1025872Y750175D02*
Y750166D01*
Y750138D01*
Y750101D01*
Y750045D01*
X1025863Y749971D01*
Y749898D01*
X1025845Y749722D01*
X1025826Y749518D01*
X1025789Y749306D01*
X1025734Y749112D01*
X1025669Y748927D01*
Y748917D01*
X1025660Y748908D01*
X1025632Y748853D01*
X1025586Y748779D01*
X1025521Y748677D01*
X1025429Y748575D01*
X1025327Y748464D01*
X1025198Y748354D01*
X1025050Y748261D01*
X1025031Y748252D01*
X1024976Y748224D01*
X1024892Y748187D01*
X1024772Y748150D01*
X1024624Y748104D01*
X1024458Y748067D01*
X1024273Y748039D01*
X1024070Y748030D01*
X1023986D01*
X1023931Y748039D01*
X1023857Y748048D01*
X1023783Y748058D01*
X1023589Y748095D01*
X1023385Y748150D01*
X1023173Y748233D01*
X1023062Y748289D01*
X1022960Y748354D01*
X1022868Y748427D01*
X1022775Y748511D01*
X1022766Y748520D01*
X1022757Y748529D01*
X1022738Y748566D01*
X1022710Y748603D01*
X1022673Y748649D01*
X1022636Y748714D01*
X1022599Y748788D01*
X1022553Y748871D01*
X1022516Y748964D01*
X1022479Y749075D01*
X1022442Y749186D01*
X1022405Y749315D01*
X1022387Y749454D01*
X1022359Y749611D01*
X1022350Y749768D01*
Y749944D01*
X1023117Y750055D01*
Y750045D01*
Y750027D01*
Y749990D01*
X1023127Y749934D01*
X1023136Y749879D01*
Y749814D01*
X1023164Y749657D01*
X1023191Y749491D01*
X1023247Y749324D01*
X1023302Y749176D01*
X1023339Y749112D01*
X1023385Y749056D01*
X1023395Y749047D01*
X1023432Y749019D01*
X1023487Y748973D01*
X1023561Y748927D01*
X1023663Y748871D01*
X1023774Y748834D01*
X1023912Y748797D01*
X1024060Y748788D01*
X1024116D01*
X1024171Y748797D01*
X1024255Y748807D01*
X1024338Y748825D01*
X1024430Y748844D01*
X1024523Y748880D01*
X1024615Y748927D01*
X1024624Y748936D01*
X1024652Y748954D01*
X1024689Y748991D01*
X1024744Y749028D01*
X1024791Y749093D01*
X1024846Y749158D01*
X1024892Y749232D01*
X1024929Y749324D01*
Y749333D01*
X1024948Y749370D01*
X1024957Y749435D01*
X1024976Y749518D01*
X1024994Y749629D01*
X1025003Y749768D01*
X1025022Y749934D01*
Y750129D01*
Y754539D01*
X1025872D01*
Y750175D01*
D02*
G37*
%LPC*%
G36*
X1029081Y751599D02*
X1029025D01*
X1028988Y751589D01*
X1028896Y751580D01*
X1028766Y751552D01*
X1028628Y751506D01*
X1028471Y751432D01*
X1028323Y751340D01*
X1028175Y751210D01*
X1028156Y751192D01*
X1028119Y751146D01*
X1028054Y751062D01*
X1027990Y750942D01*
X1027925Y750804D01*
X1027860Y750628D01*
X1027823Y750434D01*
X1027805Y750212D01*
Y750193D01*
Y750147D01*
X1027814Y750064D01*
X1027823Y749962D01*
X1027842Y749842D01*
X1027879Y749713D01*
X1027916Y749574D01*
X1027971Y749435D01*
X1027980Y749417D01*
X1028008Y749370D01*
X1028045Y749306D01*
X1028101Y749223D01*
X1028165Y749139D01*
X1028249Y749038D01*
X1028341Y748954D01*
X1028452Y748871D01*
X1028471Y748862D01*
X1028507Y748844D01*
X1028572Y748807D01*
X1028655Y748779D01*
X1028748Y748742D01*
X1028859Y748705D01*
X1028979Y748686D01*
X1029108Y748677D01*
X1029155D01*
X1029192Y748686D01*
X1029284Y748696D01*
X1029404Y748723D01*
X1029534Y748779D01*
X1029682Y748844D01*
X1029830Y748945D01*
X1029903Y749001D01*
X1029968Y749075D01*
Y749084D01*
X1029987Y749093D01*
X1030024Y749149D01*
X1030079Y749241D01*
X1030153Y749361D01*
X1030218Y749518D01*
X1030273Y749703D01*
X1030310Y749916D01*
X1030329Y750166D01*
Y750175D01*
Y750193D01*
Y750230D01*
X1030320Y750277D01*
Y750332D01*
X1030310Y750397D01*
X1030283Y750545D01*
X1030246Y750711D01*
X1030181Y750887D01*
X1030088Y751053D01*
X1029968Y751210D01*
X1029950Y751229D01*
X1029903Y751275D01*
X1029830Y751331D01*
X1029728Y751404D01*
X1029598Y751479D01*
X1029451Y751534D01*
X1029275Y751580D01*
X1029081Y751599D01*
D02*
G37*
%LPD*%
D11*
X984350Y718280D02*
Y777780D01*
Y718280D02*
X1060350D01*
Y777780D01*
X984350D02*
X1060350D01*
M02*
