G04*
G04 #@! TF.GenerationSoftware,Altium Limited,Altium Designer,24.0.1 (36)*
G04*
G04 Layer_Color=128*
%FSLAX44Y44*%
%MOMM*%
G71*
G04*
G04 #@! TF.SameCoordinates,AE154294-96CE-490B-A9AE-858F9377290F*
G04*
G04*
G04 #@! TF.FilePolarity,Positive*
G04*
G01*
G75*
%ADD14C,0.1270*%
D14*
X1045350Y762780D02*
X1056350D01*
X1050850Y757280D02*
Y768280D01*
X1004850Y742780D02*
X1014850D01*
X1009850Y737780D02*
Y747780D01*
X1029850Y742780D02*
X1039850D01*
X1034850Y737780D02*
Y747780D01*
X1438990Y452120D02*
X1448990D01*
X1443990Y447120D02*
Y457120D01*
X1413990Y452120D02*
X1423990D01*
X1418990Y447120D02*
Y457120D01*
X1313990Y452120D02*
X1323990D01*
X1318990Y447120D02*
Y457120D01*
X1338990Y452120D02*
X1348990D01*
X1343990Y447120D02*
Y457120D01*
X1388990Y452120D02*
X1398990D01*
X1393990Y447120D02*
Y457120D01*
X1363990Y452120D02*
X1373990D01*
X1368990Y447120D02*
Y457120D01*
X1455430Y730250D02*
X1465430D01*
X1460430Y725250D02*
Y735250D01*
X1480430Y730250D02*
X1490430D01*
X1485430Y725250D02*
Y735250D01*
X1430430Y730250D02*
X1440430D01*
X1435430Y725250D02*
Y735250D01*
X1405430Y730250D02*
X1415430D01*
X1410430Y725250D02*
Y735250D01*
X1505430Y730250D02*
X1515430D01*
X1510430Y725250D02*
Y735250D01*
X1530430Y730250D02*
X1540430D01*
X1535430Y725250D02*
Y735250D01*
X1555430Y730250D02*
X1565430D01*
X1560430Y725250D02*
Y735250D01*
X1580430Y730250D02*
X1590430D01*
X1585430Y725250D02*
Y735250D01*
X1553540Y424540D02*
X1564540D01*
X1559040Y419040D02*
Y430040D01*
X1488540Y424540D02*
X1499540D01*
X1494040Y419040D02*
Y430040D01*
X1553540Y469540D02*
X1564540D01*
X1559040Y464040D02*
Y475040D01*
X1488540Y469540D02*
X1499540D01*
X1494040Y464040D02*
Y475040D01*
X1310188Y802640D02*
X1320188D01*
X1315188Y797640D02*
Y807640D01*
X1285188Y802640D02*
X1295188D01*
X1290188Y797640D02*
Y807640D01*
X1260188Y802640D02*
X1270188D01*
X1265188Y797640D02*
Y807640D01*
X1235188Y802640D02*
X1245188D01*
X1240188Y797640D02*
Y807640D01*
X1427960Y800100D02*
X1437960D01*
X1432960Y795100D02*
Y805100D01*
X1452960Y800100D02*
X1462960D01*
X1457960Y795100D02*
Y805100D01*
X1402960Y800100D02*
X1412960D01*
X1407960Y795100D02*
Y805100D01*
X1377960Y800100D02*
X1387960D01*
X1382960Y795100D02*
Y805100D01*
X1477960Y800100D02*
X1487960D01*
X1482960Y795100D02*
Y805100D01*
X1502960Y800100D02*
X1512960D01*
X1507960Y795100D02*
Y805100D01*
X1527960Y800100D02*
X1537960D01*
X1532960Y795100D02*
Y805100D01*
X1552960Y800100D02*
X1562960D01*
X1557960Y795100D02*
Y805100D01*
X1171090Y802640D02*
X1181090D01*
X1176090Y797640D02*
Y807640D01*
X1146090Y802640D02*
X1156090D01*
X1151090Y797640D02*
Y807640D01*
X1121090Y802640D02*
X1131090D01*
X1126090Y797640D02*
Y807640D01*
X1096090Y802640D02*
X1106090D01*
X1101090Y797640D02*
Y807640D01*
X1099850Y605530D02*
X1131850D01*
X1115850Y589530D02*
Y621530D01*
X1041850Y605530D02*
X1073850D01*
X1057850Y589530D02*
Y621530D01*
X1069850Y557530D02*
X1101850D01*
X1085850Y541530D02*
Y573530D01*
X1056170Y457200D02*
X1067270D01*
X1061720Y451650D02*
Y462750D01*
X1081570Y457200D02*
X1092670D01*
X1087120Y451650D02*
Y462750D01*
X1106970Y457200D02*
X1118070D01*
X1112520Y451650D02*
Y462750D01*
X1432330Y675640D02*
X1435330D01*
X1433830Y674140D02*
Y677140D01*
X1078000Y770890D02*
X1081000D01*
X1079500Y769390D02*
Y772390D01*
X1281887Y780363D02*
X1284887D01*
X1283387Y778863D02*
Y781863D01*
X1126260Y777240D02*
X1129260D01*
X1127760Y775740D02*
Y778740D01*
X1344700Y793750D02*
X1347700D01*
X1346200Y792250D02*
Y795250D01*
X1083080Y778510D02*
X1086080D01*
X1084580Y777010D02*
Y780010D01*
X1344700Y784860D02*
X1347700D01*
X1346200Y783360D02*
Y786360D01*
X1288820Y770890D02*
X1291820D01*
X1290320Y769390D02*
Y772390D01*
X1174520Y774748D02*
X1177520D01*
X1176020Y773248D02*
Y776248D01*
X1408200Y689610D02*
X1411200D01*
X1409700Y688110D02*
Y691110D01*
X1155470Y735330D02*
X1158470D01*
X1156970Y733830D02*
Y736830D01*
X1165630Y735330D02*
X1168630D01*
X1167130Y733830D02*
Y736830D01*
X1180870Y730250D02*
X1183870D01*
X1182370Y728750D02*
Y731750D01*
X1589010Y435610D02*
X1619010D01*
X1604010Y420610D02*
Y450610D01*
X980680Y435610D02*
X1010680D01*
X995680Y420610D02*
Y450610D01*
X981950Y808990D02*
X1011950D01*
X996950Y793990D02*
Y823990D01*
X1217700Y426720D02*
X1220700D01*
X1219200Y425220D02*
Y428220D01*
X1238020Y440690D02*
X1241020D01*
X1239520Y439190D02*
Y442190D01*
X1434663Y764333D02*
X1437663D01*
X1436163Y762833D02*
Y765833D01*
X1598760Y808990D02*
X1628760D01*
X1613760Y793990D02*
Y823990D01*
X1460270Y690880D02*
X1463270D01*
X1461770Y689380D02*
Y692380D01*
X1514880Y679450D02*
X1517880D01*
X1516380Y677950D02*
Y680950D01*
X1392960Y680720D02*
X1395960D01*
X1394460Y679220D02*
Y682220D01*
X1554250Y690880D02*
X1557250D01*
X1555750Y689380D02*
Y692380D01*
X1385340Y684530D02*
X1388340D01*
X1386840Y683030D02*
Y686030D01*
X1323110Y651494D02*
X1326110D01*
X1324610Y649994D02*
Y652994D01*
X1317294Y645878D02*
X1320294D01*
X1318794Y644378D02*
Y647378D01*
X1319300Y637540D02*
X1322300D01*
X1320800Y636040D02*
Y639040D01*
X1472970Y762000D02*
X1475970D01*
X1474470Y760500D02*
Y763500D01*
X1526310Y758190D02*
X1529310D01*
X1527810Y756690D02*
Y759690D01*
X1323110Y629920D02*
X1326110D01*
X1324610Y628420D02*
Y631420D01*
X1321840Y622300D02*
X1324840D01*
X1323340Y620800D02*
Y623800D01*
X1515384Y560836D02*
X1518384D01*
X1516884Y559336D02*
Y562336D01*
X1521230Y551228D02*
X1524230D01*
X1522730Y549728D02*
Y552728D01*
X1555520Y556260D02*
X1558520D01*
X1557020Y554760D02*
Y557760D01*
X1521230Y661670D02*
X1524230D01*
X1522730Y660170D02*
Y663170D01*
X1547900Y632460D02*
X1550900D01*
X1549400Y630960D02*
Y633960D01*
X1551710Y572770D02*
X1554710D01*
X1553210Y571270D02*
Y574270D01*
X1573300Y495300D02*
X1576300D01*
X1574800Y493800D02*
Y496800D01*
X1478050Y434340D02*
X1481050D01*
X1479550Y432840D02*
Y435840D01*
X1478050Y474980D02*
X1481050D01*
X1479550Y473480D02*
Y476480D01*
X1321840Y515620D02*
X1324840D01*
X1323340Y514120D02*
Y517120D01*
X1321840Y523240D02*
X1324840D01*
X1323340Y521740D02*
Y524740D01*
X1326237Y585470D02*
X1329237D01*
X1327737Y583970D02*
Y586970D01*
X1321840Y537210D02*
X1324840D01*
X1323340Y535710D02*
Y538710D01*
X1304060Y697230D02*
X1307060D01*
X1305560Y695730D02*
Y698730D01*
X1323110Y693420D02*
X1326110D01*
X1324610Y691920D02*
Y694920D01*
X1285010Y648970D02*
X1288010D01*
X1286510Y647470D02*
Y650470D01*
X1390420Y483870D02*
X1393420D01*
X1391920Y482370D02*
Y485370D01*
X1320570Y544830D02*
X1323570D01*
X1322070Y543330D02*
Y546330D01*
X1311680Y560070D02*
X1314680D01*
X1313180Y558570D02*
Y561570D01*
X1238020Y549910D02*
X1241020D01*
X1239520Y548410D02*
Y551410D01*
X1304108Y522018D02*
X1307108D01*
X1305608Y520518D02*
Y523518D01*
X1285010Y548640D02*
X1288010D01*
X1286510Y547140D02*
Y550140D01*
X1288820Y529590D02*
X1291820D01*
X1290320Y528090D02*
Y531090D01*
X1281200Y529590D02*
X1284200D01*
X1282700Y528090D02*
Y531090D01*
X1277390Y520700D02*
X1280390D01*
X1278890Y519200D02*
Y522200D01*
X1253260Y556260D02*
X1256260D01*
X1254760Y554760D02*
Y557760D01*
X1283740Y575310D02*
X1286740D01*
X1285240Y573810D02*
Y576810D01*
X1285010Y462280D02*
X1288010D01*
X1286510Y460780D02*
Y463780D01*
X1213890Y561340D02*
X1216890D01*
X1215390Y559840D02*
Y562840D01*
X1205000Y553720D02*
X1208000D01*
X1206500Y552220D02*
Y555220D01*
X1182140Y721360D02*
X1185140D01*
X1183640Y719860D02*
Y722860D01*
X1183410Y662940D02*
X1186410D01*
X1184910Y661440D02*
Y664440D01*
X1263420Y774700D02*
X1266420D01*
X1264920Y773200D02*
Y776200D01*
X1244370Y754380D02*
X1247370D01*
X1245870Y752880D02*
Y755880D01*
X1239290Y741680D02*
X1242290D01*
X1240790Y740180D02*
Y743180D01*
X1273580Y748030D02*
X1276580D01*
X1275080Y746530D02*
Y749530D01*
X1272667Y711557D02*
X1275667D01*
X1274167Y710058D02*
Y713057D01*
X1180379Y750414D02*
X1183379D01*
X1181879Y748914D02*
Y751914D01*
X1177952Y708282D02*
X1180953D01*
X1179453Y706783D02*
Y709782D01*
X1173250Y751840D02*
X1176250D01*
X1174750Y750340D02*
Y753340D01*
X1213890Y740410D02*
X1216890D01*
X1215390Y738910D02*
Y741910D01*
X1149120Y707390D02*
X1152120D01*
X1150620Y705890D02*
Y708890D01*
X1097050Y665480D02*
X1100050D01*
X1098550Y663980D02*
Y666980D01*
X1117370Y664210D02*
X1120370D01*
X1118870Y662710D02*
Y665710D01*
X1058950Y666750D02*
X1061950D01*
X1060450Y665250D02*
Y668250D01*
X1112290Y529590D02*
X1115290D01*
X1113790Y528090D02*
Y531090D01*
X1156740Y779780D02*
X1159740D01*
X1158240Y778280D02*
Y781280D01*
M02*
